<svg width="92" height="18" viewBox="0 0 92 18" fill="none" xmlns="http://www.w3.org/2000/svg">
<path fill-rule="evenodd" clip-rule="evenodd" d="M8.48934 1.30932C9.25064 0.921428 10.194 0.875987 10.8309 0.964164L11 0.0495374C10.1981 -0.0614855 8.98336 -0.0172861 7.94623 0.511143C6.96084 1.01321 6.20665 1.91691 6.0821 3.3623C5.00288 3.49328 3.67224 4.05693 3.1515 5.55897C2.81606 6.52654 1.64097 7.53926 -2.41279e-07 8.14886L0.422255 9C2.2343 8.32685 3.71843 7.14716 4.17676 5.82513C4.60453 4.59125 5.76935 4.25678 6.59918 4.25679L7.13439 4.2568L7.13439 3.79366C7.13439 2.38568 7.77088 1.67538 8.48934 1.30932Z" fill="black"/>
<path fill-rule="evenodd" clip-rule="evenodd" d="M8.48934 16.5452C9.25064 16.9762 10.194 17.0267 10.8309 16.9287L11 17.945C10.1981 18.0683 8.98336 18.0192 7.94623 17.4321C6.96084 16.8742 6.20665 15.8701 6.0821 14.2641C5.00288 14.1186 3.67224 13.4923 3.1515 11.8234C2.81606 10.7483 1.64097 9.62304 1.62124e-07 8.94572L0.422257 8C2.2343 8.74794 3.71843 10.0587 4.17676 11.5276C4.60453 12.8986 5.76935 13.2702 6.59918 13.2702L7.13439 13.2702L7.13439 13.7848C7.13439 15.3492 7.77088 16.1385 8.48934 16.5452Z" fill="black"/>
<path d="M92 8.5C92 8.22386 91.6322 8 91.1786 8L0.821434 8.00001C0.367767 8.00001 1.95701e-08 8.22386 4.3711e-08 8.5C6.7852e-08 8.77614 0.367767 9 0.821434 9L91.1786 8.99999C91.6322 8.99999 92 8.77614 92 8.5Z" fill="black"/>
</svg>
