<svg width="83" height="21" viewBox="0 0 83 21" fill="none" xmlns="http://www.w3.org/2000/svg">
<path fill-rule="evenodd" clip-rule="evenodd" d="M10.0791 18.7879C10.9361 19.2245 11.998 19.2757 12.7149 19.1764L12.9053 20.206C12.0026 20.3309 10.6352 20.2812 9.46779 19.6863C8.35858 19.1212 7.50963 18.1039 7.36943 16.4769C6.15461 16.3295 4.65677 15.695 4.0706 14.0043C3.69301 12.9151 2.37027 11.7751 0.523112 11.0889L0.998425 10.1309C3.03815 10.8886 4.70877 12.2165 5.22469 13.7047C5.70621 15.0936 7.01738 15.4701 7.95148 15.4701L8.55395 15.47L8.55395 15.9914C8.55395 17.5763 9.27041 18.3758 10.0791 18.7879Z" fill="white"/>
<path fill-rule="evenodd" clip-rule="evenodd" d="M10.0791 1.6376C10.9361 1.15245 11.998 1.09562 12.7149 1.2059L12.9053 0.0619576C12.0026 -0.0769017 10.6352 -0.0216209 9.4678 0.639297C8.35859 1.26724 7.50963 2.39752 7.36943 4.20531C6.15461 4.36912 4.65677 5.07409 4.0706 6.95274C3.69301 8.16289 2.37026 9.42953 0.52311 10.192L0.998423 11.2565C3.03815 10.4146 4.70877 8.93912 5.22469 7.28563C5.70621 5.74238 7.01738 5.32405 7.95148 5.32407L8.55394 5.32408L8.55394 4.74482C8.55395 2.98382 9.27041 2.09544 10.0791 1.6376Z" fill="white"/>
<path d="M83 10.5C83 10.7761 82.6682 11 82.2589 11L0.741074 11C0.331795 11 5.87095e-08 10.7761 1.31131e-07 10.5C2.03553e-07 10.2239 0.331795 10 0.741074 10L82.2589 10C82.6682 10 83 10.2239 83 10.5Z" fill="white"/>
</svg>
