<svg width="92" height="18" viewBox="0 0 92 18" fill="none" xmlns="http://www.w3.org/2000/svg">
<path fill-rule="evenodd" clip-rule="evenodd" d="M83.5107 16.6907C82.7494 17.0786 81.806 17.124 81.1691 17.0358L81 17.9505C81.8019 18.0615 83.0166 18.0173 84.0538 17.4889C85.0392 16.9868 85.7933 16.0831 85.9179 14.6377C86.9971 14.5067 88.3278 13.9431 88.8485 12.441C89.1839 11.4735 90.359 10.4607 92 9.85114L91.5777 9C89.7657 9.67315 88.2816 10.8528 87.8232 12.1749C87.3955 13.4087 86.2307 13.7432 85.4008 13.7432L84.8656 13.7432L84.8656 14.2063C84.8656 15.6143 84.2291 16.3246 83.5107 16.6907Z" fill="black"/>
<path fill-rule="evenodd" clip-rule="evenodd" d="M83.5107 1.4548C82.7494 1.02381 81.806 0.973319 81.1691 1.07129L81 0.0550415C81.8019 -0.0683175 83.0166 -0.0192073 84.0538 0.567936C85.0392 1.12579 85.7933 2.1299 85.9179 3.73589C86.9971 3.88142 88.3278 4.5077 88.8485 6.17663C89.1839 7.25171 90.359 8.37696 92 9.05428L91.5777 10C89.7657 9.25206 88.2816 7.94129 87.8232 6.47237C87.3955 5.10139 86.2307 4.72975 85.4008 4.72977L84.8656 4.72977L84.8656 4.21518C84.8656 2.65075 84.2291 1.86153 83.5107 1.4548Z" fill="black"/>
<path d="M-8.74221e-08 9.5C-3.91402e-08 9.77614 0.367766 10 0.821429 10L91.1786 9.99998C91.6322 9.99998 92 9.77613 92 9.49999C92 9.22385 91.6322 8.99999 91.1786 8.99999L0.821431 9.00001C0.367768 9.00001 -1.35704e-07 9.22386 -8.74221e-08 9.5Z" fill="black"/>
</svg>
