<svg width="357" height="46" viewBox="0 0 357 46" fill="none" xmlns="http://www.w3.org/2000/svg">
<path d="M66.9049 4.79584V15.9745C66.9049 16.0441 66.9095 16.1161 66.9049 16.1833C66.7302 18.2011 66.721 20.1399 69.1696 20.9749H63.6356C63.9828 20.6919 64.2219 20.4136 64.5254 20.2582C65.5784 19.7271 65.8037 18.8806 65.7899 17.7395C65.7278 13.2866 65.7416 8.82664 65.7853 4.36905C65.7945 3.5202 65.5531 2.94969 64.8656 2.48353C64.2656 2.07534 63.7253 1.56971 62.916 0.908721C64.6265 0.908721 66.0083 0.873933 67.3855 0.938872C67.6797 0.955107 68.0177 1.2798 68.2338 1.54883C72.0365 6.23835 75.8277 10.9371 79.7638 15.8145C79.7914 15.2996 79.8282 14.9541 79.8282 14.6062C79.8328 11.074 79.7914 7.54411 79.8557 4.0119C79.8741 3.00535 79.6488 2.31421 78.7039 1.88284C78.2947 1.6973 77.9475 1.37495 77.352 0.966759H83.4492C82.7963 1.44452 82.325 1.84806 81.8008 2.1542C81.203 2.5044 80.9961 2.95201 81.0007 3.65242C81.0306 9.00292 81.0168 14.3511 81.0168 19.697V20.9122C80.2489 21.3366 79.9178 20.7963 79.5637 20.358C75.5633 15.4249 71.5652 10.4872 67.5671 5.54721C67.4199 5.37095 67.259 5.20402 66.9049 4.79584Z" fill="white"/>
<path d="M217.072 11.3261H223.946C224.027 11.4212 224.112 11.5209 224.192 11.6207C223.962 11.7389 223.735 11.8572 223.505 11.9662C222.417 12.4904 222.116 13.3323 222.18 14.5383C222.289 16.7555 222.208 18.9843 222.208 21.1806C222.082 21.234 221.992 21.3035 221.962 21.2803C220.534 20.3016 219.097 20.9208 217.61 21.1435C213.888 21.7094 210.336 21.2432 207.372 18.6294C204.183 15.8139 203.344 12.1657 204.3 8.17655C205.215 4.36835 207.979 2.18136 211.598 1.14697C214.679 0.270298 217.78 0.492905 220.822 1.51105C221.433 1.71515 221.675 2.04218 221.647 2.70316C221.594 3.8164 221.633 4.93658 221.633 6.33973C220.3 4.92267 219.187 3.69811 218.024 2.52226C217.736 2.23235 217.322 1.99112 216.932 1.89835C212.31 0.859327 208.305 3.58909 207.533 8.32731C207.066 11.1939 207.292 14.0026 208.71 16.6024C210.218 19.36 212.662 20.4988 215.674 20.3411C219.086 20.1625 219.086 20.0905 219.086 16.6534C219.086 15.8301 219.005 14.9975 219.104 14.1881C219.231 13.1467 218.854 12.502 217.923 12.0961C217.589 11.95 217.306 11.7018 216.998 11.4977C217.028 11.4444 217.051 11.3841 217.072 11.3261Z" fill="white"/>
<path d="M279.108 13.4684C279.108 15.3145 279.085 17.221 279.131 19.132C279.135 19.3593 279.423 19.6353 279.648 19.7837C280.204 20.1641 280.807 20.4865 281.618 20.9712H274.146C274.174 20.9086 274.183 20.7764 274.24 20.7462C275.714 20.0481 275.946 18.8607 275.912 17.316C275.804 12.9002 275.827 8.4728 275.903 4.05695C275.921 2.90197 275.657 2.08555 274.627 1.55213C274.429 1.44776 274.268 1.25758 273.967 1.00247C274.353 0.958401 274.599 0.909726 274.847 0.916684C277.834 0.972346 280.836 0.905047 283.809 1.15089C286.175 1.35034 288.336 2.25951 289.311 4.74343C290.739 8.40319 288.709 11.9539 284.628 12.8167C282.88 13.1855 281.069 13.2434 279.108 13.4684ZM279.17 1.94643V12.2369C281.522 12.2067 284.014 12.6984 285.538 10.3792C286.828 8.41014 286.819 6.16278 285.642 4.1404C284.195 1.65185 281.657 1.94179 279.17 1.94643Z" fill="white"/>
<path d="M140.259 20.9992H133.401C133.507 20.8439 133.546 20.7534 133.613 20.6931C135.139 19.3641 135.139 19.3642 134.397 17.4207C134.226 16.9754 134.054 16.5277 133.884 16.0778C133.118 14.0554 133.118 14.0554 130.925 14.0554C129.43 14.0554 127.931 14.0855 126.437 14.0438C125.871 14.0299 125.582 14.1992 125.402 14.7558C124.982 16.0546 124.517 17.3348 124.041 18.615C123.839 19.1624 123.949 19.494 124.483 19.7654C125.113 20.0831 125.697 20.4867 126.522 20.9876H120.317C120.344 20.9134 120.354 20.7789 120.411 20.751C122.28 19.937 122.924 18.2556 123.549 16.479C125.035 12.2626 126.6 8.07636 128.161 3.8878C128.511 2.9485 128.968 2.04863 128.035 0.90756C129.244 0.90756 130.173 0.865814 131.093 0.937711C131.32 0.956265 131.615 1.31349 131.716 1.57556C133.911 7.24148 136.045 12.9306 138.305 18.5687C138.677 19.5033 139.606 20.2084 140.259 20.9992ZM132.668 12.8355C131.55 9.86914 130.477 7.01419 129.401 4.16383C129.32 4.18239 129.237 4.19859 129.157 4.21946C128.152 7.06518 127.15 9.90857 126.117 12.8355H132.668Z" fill="white"/>
<path d="M355.47 21.0088H348.338C349.111 20.422 349.69 19.979 350.308 19.5036C349.692 17.8546 349.113 16.2195 348.458 14.6146C348.354 14.3595 347.929 14.0904 347.644 14.0835C345.57 14.0417 343.489 14.0371 341.42 14.0928C341.128 14.0974 340.698 14.4314 340.585 14.7213C340.077 16.0247 339.691 17.3745 339.185 18.6779C338.974 19.2253 339.119 19.4874 339.585 19.7402C340.208 20.0788 340.806 20.4661 341.65 20.974H335.475C335.521 20.8882 335.541 20.7652 335.606 20.7351C337.358 19.9141 338.036 18.3463 338.64 16.6208C340.234 12.0774 341.967 7.585 343.574 3.04624C343.79 2.43859 343.606 1.68247 343.606 0.910163C344.326 0.910163 345.209 0.842918 346.076 0.951922C346.391 0.991349 346.786 1.40417 346.91 1.74046C348.616 6.09832 350.274 10.4724 351.948 14.8372C352.24 15.6003 352.555 16.3587 352.824 17.1333C353.35 18.664 353.92 20.1507 355.649 20.807C355.594 20.8696 355.532 20.9439 355.47 21.0088ZM347.809 12.8357C346.687 9.84158 345.604 6.97035 344.432 3.84864C343.328 6.98427 342.303 9.86013 341.248 12.8357H347.809Z" fill="white"/>
<path d="M34.5928 21.0189H28.6772C28.76 20.8728 28.7876 20.7545 28.852 20.7243C30.5579 19.9149 31.2476 18.3982 31.8431 16.7005C33.4341 12.1571 35.1768 7.66466 36.7816 3.12822C37.0092 2.49043 36.8137 1.70188 36.8137 0.908699C37.5701 0.908699 38.4622 0.841453 39.329 0.950457C39.6394 0.992204 40.0233 1.41666 40.1567 1.75527C42.0971 6.71382 44.0191 11.6816 45.8975 16.6657C46.5251 18.3239 46.9781 20.0564 48.7438 20.9957H41.6212C42.3385 20.4368 42.9225 19.9799 43.5455 19.4975C42.9294 17.8485 42.3454 16.2134 41.6879 14.6085C41.5867 14.3557 41.1567 14.0936 40.8716 14.0843C38.7956 14.0403 36.7195 14.038 34.6457 14.089C34.3698 14.0936 33.956 14.3789 33.8571 14.634C33.3375 15.9699 32.9329 17.3498 32.4202 18.6857C32.2064 19.2447 32.3719 19.4975 32.8317 19.7433C33.4548 20.0819 34.0525 20.4693 34.6595 20.838C34.6388 20.896 34.6158 20.9586 34.5928 21.0189ZM37.6713 3.84024C36.5585 6.98514 35.5378 9.868 34.4917 12.8227H41.0326C39.9175 9.84249 38.8439 6.97354 37.6713 3.84024Z" fill="white"/>
<path d="M0.263407 20.8695V15.6999C1.41525 17.0544 2.30501 18.2905 3.38099 19.3272C4.77654 20.6677 6.56064 20.51 8.27116 20.139C9.67361 19.8328 10.6047 18.9329 10.876 17.4463C11.1243 16.1127 10.5519 15.0667 9.57244 14.306C8.50106 13.4757 7.31242 12.7962 6.17207 12.0587C4.85928 11.2122 3.44534 10.4909 2.23832 9.50985C-0.85167 6.98883 -0.242398 2.9533 3.39937 1.32751C5.41338 0.425327 7.52857 0.66194 9.62534 0.78486C10.5013 0.833564 11.3703 1.01908 12.313 1.15128V6.13764C11.4485 5.11022 10.7151 4.2521 9.99777 3.38007C8.62521 1.70325 7.02276 1.22779 4.97656 1.90732C3.00854 2.55671 2.28661 4.80642 3.69135 6.34176C4.57191 7.30425 5.71916 8.03713 6.81353 8.77001C8.33783 9.79511 9.96329 10.6625 11.4761 11.7016C15.1593 14.2295 13.9315 19.1208 10.3518 20.5889C7.9217 21.5862 5.42028 21.3543 2.91427 21.1896C2.03831 21.1316 1.17385 20.9832 0.263407 20.8695Z" fill="white"/>
<path d="M253.181 0.949707H258.83C258.322 1.37181 258.014 1.71043 257.632 1.93076C256.878 2.3575 256.717 2.9698 256.729 3.80241C256.775 7.26736 256.782 10.7323 256.72 14.1949C256.701 15.2409 256.526 16.3194 256.211 17.3166C255.462 19.6498 253.671 20.8095 251.367 21.1689C249.234 21.5006 247.102 21.4983 245.054 20.6402C242.647 19.6266 241.336 17.755 241.256 15.1714C241.143 11.4675 241.152 7.76368 241.203 4.06216C241.221 2.99299 241.01 2.20907 240.049 1.69188C239.789 1.55041 239.573 1.31849 239.182 1.00307H246.394C245.843 1.4275 245.334 1.72667 244.948 2.14182C244.656 2.44796 244.355 2.90717 244.35 3.30144C244.309 6.97049 244.309 10.6395 244.341 14.3086C244.35 15.1226 244.445 15.9622 244.661 16.7438C245.41 19.4248 247.691 20.6378 250.997 20.1832C253.786 19.8075 255.434 18.0171 255.501 15.0021C255.591 11.0918 255.538 7.18387 255.515 3.27362C255.51 2.96053 255.276 2.58018 255.039 2.35521C254.538 1.90064 253.963 1.52952 253.181 0.949707Z" fill="white"/>
<path d="M315.956 21.0071H308.983C309.123 20.8378 309.181 20.7079 309.279 20.6661C310.703 20.0121 310.882 18.8525 310.857 17.4007C310.772 12.6694 310.829 7.93583 310.829 3.20688V1.94754C309.679 1.94754 308.597 1.91737 307.527 1.97535C307.288 1.98927 307.024 2.28148 306.845 2.50413C305.941 3.60809 305.063 4.7329 304.012 6.05951V0.96875H320.851V5.99687C320.168 5.16658 319.503 4.57751 319.113 3.83999C317.977 1.69005 316.154 1.71096 314.062 2.06581V3.15812C314.062 8.09579 314.094 13.0358 314.039 17.9712C314.025 19.0589 314.195 19.8984 315.234 20.404C315.453 20.5084 315.625 20.7264 315.956 21.0071Z" fill="white"/>
<path d="M170.063 2.59037C169.263 2.05694 168.57 1.58385 167.674 0.985484H173.514C173.495 1.07825 173.504 1.17564 173.47 1.19187C171.624 2.14972 170.647 3.87758 169.621 5.57294C168.437 7.53039 167.184 9.44608 166.023 11.4198C165.733 11.9161 165.57 12.5492 165.549 13.129C165.487 14.7734 165.586 16.4224 165.506 18.0667C165.455 19.0941 165.692 19.8525 166.658 20.3187C166.92 20.4416 167.122 20.6944 167.483 20.9959H160.611C160.625 20.9101 160.616 20.808 160.645 20.7941C162.218 20.0682 162.312 18.7602 162.423 17.1877C162.65 13.855 161.995 10.9327 159.864 8.32125C159.006 7.27295 158.448 5.98113 157.659 4.87253C156.696 3.51345 155.629 2.22627 154.61 0.913574H157.916H161.367C161.4 0.978513 161.434 1.04112 161.471 1.10142C160.901 1.54208 160.331 1.9781 159.641 2.51152C161.363 5.2923 163.073 8.05453 164.883 10.9698C166.653 8.10787 168.329 5.39434 170.063 2.59037Z" fill="white"/>
<path d="M98.7164 0.908691C100.781 0.908691 102.85 0.908724 104.915 0.913363C105.073 0.913363 105.227 0.93653 105.533 0.959722C105.354 1.15686 105.287 1.28211 105.186 1.33081C103.774 1.99643 103.572 3.1491 103.6 4.61023C103.687 9.26959 103.657 13.9359 103.625 18.5976C103.597 22.5102 101.459 24.9663 97.6611 25.4788C97.7922 25.3374 97.8588 25.2261 97.9554 25.1704C99.728 24.1778 100.402 22.5519 100.413 20.627C100.448 14.8335 100.441 9.03536 100.411 3.24188C100.409 2.8708 100.142 2.43944 99.8798 2.1449C99.5234 1.75062 99.0497 1.46533 98.6244 1.13136C98.6543 1.05946 98.6842 0.985227 98.7164 0.908691Z" fill="white"/>
<path d="M80.5024 21.3145C79.9989 21.3145 79.6793 20.9133 79.4471 20.6187L79.3643 20.5167L67.37 5.70826C67.3033 5.62709 67.2366 5.54823 67.147 5.44851V15.9756C67.1493 16.0892 67.1516 16.1472 67.1447 16.2006C66.963 18.3041 66.9998 19.974 69.2438 20.737L70.6715 21.2217H62.9327L63.473 20.781C63.5857 20.6906 63.6868 20.6001 63.7811 20.5143C63.9857 20.3288 64.1765 20.1572 64.4065 20.0389C65.3675 19.5542 65.5514 18.8027 65.5376 17.7475C65.4824 13.8303 65.4801 9.58143 65.533 4.3724C65.5422 3.56298 65.3123 3.09218 64.7214 2.69327C64.3076 2.41264 63.9236 2.08332 63.4753 1.70528C63.2569 1.52438 63.0201 1.32028 62.7557 1.10459L62.2085 0.663929H62.9097C63.3788 0.663929 63.8248 0.659296 64.2501 0.654657C65.3973 0.650019 66.3883 0.64536 67.3907 0.691745C67.7884 0.710299 68.1701 1.0837 68.4207 1.39216C71.5107 5.205 74.5937 9.02015 77.7504 12.9374L79.5506 15.1708C79.5644 14.9667 79.5759 14.7858 79.5759 14.6096C79.5759 13.5497 79.5736 12.4898 79.5713 11.4299C79.5644 8.99929 79.5575 6.48292 79.6035 4.01292C79.6219 2.96926 79.3483 2.45207 78.5965 2.11346C78.3045 1.97894 78.0539 1.79339 77.7343 1.56146C77.5803 1.44318 77.4078 1.3156 77.2078 1.17877L76.5457 0.721896H84.2109L83.5901 1.1765C83.3786 1.32493 83.1878 1.47566 83.0084 1.61249C82.6199 1.90704 82.2865 2.16218 81.9187 2.37555C81.4221 2.66545 81.2381 3.01563 81.2427 3.66038C81.2634 7.73297 81.2611 11.8079 81.2611 15.8828L81.2588 21.0733L81.1301 21.1405C80.891 21.2634 80.6863 21.3145 80.5024 21.3145ZM66.6527 4.13813L67.4068 4.99397C67.5608 5.16328 67.6574 5.27691 67.7539 5.39287L79.8334 20.3125C80.1529 20.7138 80.353 20.9295 80.7645 20.7579L80.7668 15.8758C80.7691 11.8032 80.7714 7.73064 80.7484 3.65804C80.7438 2.83471 81.0197 2.32214 81.6704 1.93715C82.0106 1.74233 82.3279 1.49887 82.698 1.21592H78.1137C78.3689 1.40378 78.5781 1.55452 78.8011 1.65425C79.9667 2.18304 80.1116 3.10379 80.0978 4.01526C80.0541 6.48525 80.061 8.99468 80.0656 11.4229C80.0702 12.4851 80.0725 13.545 80.0702 14.6072C80.0702 14.8391 80.0541 15.0711 80.0334 15.3517L79.969 16.4696L77.3687 13.2481C74.2098 9.33094 71.129 5.51345 68.039 1.70061C67.7884 1.39447 67.5263 1.19041 67.37 1.18577C66.3768 1.13707 65.3928 1.14167 64.2524 1.15095C64.0386 1.15095 63.8225 1.15095 63.5972 1.15095C63.6638 1.20661 63.7305 1.26689 63.7949 1.31792C64.2294 1.68436 64.6065 2.0021 64.9996 2.26881C65.7307 2.76745 66.0365 3.39365 66.0273 4.36773C65.9767 9.5698 65.9767 13.8141 66.0319 17.7313C66.0457 18.7796 65.8871 19.8395 64.6295 20.4796C64.5145 20.5329 64.4041 20.6187 64.2915 20.7185H68.0597C66.5032 19.7026 66.494 17.9817 66.6527 16.1541C66.6573 16.117 66.655 16.0776 66.6527 16.0405V15.971V4.13813Z" fill="white"/>
<path d="M214.949 21.61C211.877 21.61 209.332 20.6915 207.217 18.8245C204.122 16.0971 203.037 12.4002 204.065 8.12123C204.936 4.50088 207.447 2.07727 211.537 0.913007C214.505 0.0688015 217.657 0.189378 220.903 1.27942C221.63 1.52526 221.931 1.95665 221.897 2.71968C221.86 3.47807 221.869 4.23414 221.878 5.1085C221.878 5.49813 221.883 5.90869 221.883 6.3447V6.97088L220.388 5.37059C219.512 4.43593 218.687 3.55233 217.855 2.70581C217.59 2.43909 217.213 2.22569 216.88 2.15148C214.712 1.66443 212.601 2.02159 210.935 3.16034C209.258 4.29909 208.141 6.15449 207.782 8.37864C207.27 11.4957 207.647 14.1489 208.932 16.496C210.323 19.0472 212.588 20.2648 215.664 20.1024C218.843 19.9424 218.843 19.9424 218.843 16.6746C218.843 16.4148 218.834 16.1621 218.825 15.9093C218.811 15.341 218.793 14.7473 218.862 14.1675C218.974 13.2514 218.664 12.7017 217.83 12.3353C217.579 12.2263 217.358 12.0663 217.142 11.9132C217.052 11.8436 216.958 11.7787 216.864 11.7184L216.694 11.6024L216.914 11.0782H224.072L224.584 11.7068L224.099 11.9549C223.938 12.0338 223.78 12.1173 223.619 12.1984C222.71 12.6345 222.37 13.3094 222.428 14.5293C222.504 16.1041 222.49 17.702 222.474 19.249C222.469 19.8937 222.464 20.5408 222.464 21.1855V21.3479L222.313 21.4105C222.271 21.4291 222.237 21.4476 222.205 21.4638C222.11 21.5125 221.97 21.5868 221.828 21.4894C220.772 20.7658 219.694 20.9907 218.554 21.225C218.257 21.2876 217.956 21.3479 217.655 21.3943C216.708 21.538 215.806 21.61 214.949 21.61ZM215.519 0.85964C214.208 0.85964 212.919 1.03591 211.666 1.39076C207.764 2.50168 205.366 4.80933 204.543 8.2395C203.545 12.3817 204.552 15.8165 207.539 18.4465C210.125 20.7286 213.413 21.5311 217.574 20.9026C217.866 20.8562 218.158 20.7959 218.45 20.7356C219.595 20.5013 220.782 20.2555 221.961 20.9861C221.966 20.4063 221.97 19.8242 221.975 19.2397C221.989 17.702 222.007 16.1087 221.929 14.5502C221.862 13.1354 222.31 12.2704 223.402 11.7439C223.515 11.6906 223.628 11.6325 223.738 11.5769H217.528C217.689 11.6952 217.852 11.8018 218.023 11.8761C219.069 12.3306 219.492 13.0821 219.351 14.2278C219.285 14.7659 219.303 15.3411 219.315 15.893C219.324 16.1505 219.333 16.4079 219.333 16.6607C219.333 20.2718 219.197 20.4179 215.682 20.5988C212.404 20.7634 209.987 19.467 208.493 16.7326C207.159 14.2858 206.764 11.5282 207.286 8.29746C207.672 5.93183 208.868 3.9628 210.654 2.74056C212.431 1.52527 214.682 1.14491 216.981 1.65978C217.413 1.75719 217.871 2.01232 218.197 2.35093C219.041 3.20209 219.869 4.09036 220.742 5.02965L221.384 5.71386C221.379 5.50513 221.379 5.30565 221.379 5.11084C221.365 4.2272 221.361 3.46649 221.398 2.69186C221.421 2.15612 221.262 1.92652 220.742 1.75257C218.968 1.15653 217.22 0.85964 215.519 0.85964Z" fill="white"/>
<path d="M282.525 21.2189H273.782L273.917 20.8779C273.954 20.7457 273.993 20.5973 274.138 20.5277C275.462 19.8969 275.701 18.8741 275.66 17.3248C275.57 13.4888 275.566 9.27242 275.655 4.05412C275.674 2.85043 275.354 2.21033 274.515 1.77663C274.354 1.69314 274.223 1.57251 274.071 1.43336C274 1.36146 273.915 1.28262 273.812 1.19448L273.363 0.814124L273.943 0.753821C274.078 0.739906 274.193 0.725994 274.297 0.714398C274.508 0.684248 274.683 0.663384 274.853 0.665703C275.72 0.684257 276.582 0.688913 277.449 0.69819C279.541 0.712106 281.707 0.728332 283.829 0.906914C286.744 1.14812 288.666 2.40976 289.54 4.65247C290.232 6.42902 290.16 8.25661 289.337 9.79427C288.452 11.4548 286.797 12.6144 284.677 13.0597C283.479 13.3125 282.256 13.4215 280.969 13.5398C280.44 13.5839 279.904 13.6303 279.357 13.6882V14.7458C279.352 16.1791 279.348 17.6588 279.38 19.1292C279.38 19.2011 279.536 19.4098 279.789 19.5791C280.166 19.8389 280.58 20.0755 281.051 20.3515C281.268 20.4744 281.495 20.6089 281.748 20.755L282.525 21.2189ZM274.803 20.7225H280.697C280.258 20.4697 279.877 20.2424 279.506 19.9943C279.403 19.927 278.89 19.556 278.883 19.1385C278.851 17.6658 278.851 16.1837 278.856 14.7458V13.2452L279.081 13.2174C279.709 13.1502 280.325 13.0945 280.923 13.0412C282.199 12.9252 283.401 12.8186 284.574 12.5751C286.549 12.1576 288.089 11.0838 288.903 9.55305C289.657 8.14991 289.719 6.47305 289.078 4.83798C288.268 2.75762 286.537 1.63049 283.787 1.40321C281.681 1.22694 279.525 1.21073 277.442 1.19682C276.575 1.18986 275.708 1.18289 274.842 1.16433C274.743 1.16433 274.644 1.16898 274.536 1.18521C274.612 1.25015 274.676 1.30115 274.743 1.3313C276.014 1.98996 276.166 3.08467 276.147 4.06339C276.062 9.27242 276.062 13.4842 276.157 17.3133C276.193 18.7976 275.961 19.9618 274.803 20.7225ZM281.164 12.5101C280.868 12.5101 280.571 12.5031 280.274 12.4961C279.906 12.4869 279.543 12.4776 279.173 12.4823L278.922 12.4869V1.69778H279.168C279.403 1.69547 279.635 1.69311 279.865 1.69311C282.127 1.66296 284.468 1.63513 285.852 4.01236C287.091 6.14375 287.05 8.514 285.744 10.5178C284.587 12.2828 282.893 12.5101 281.164 12.5101ZM279.419 11.9836C279.706 11.9836 279.998 11.9882 280.29 11.9975C282.261 12.0393 284.125 12.0787 285.332 10.2395C286.553 8.37485 286.585 6.25277 285.427 4.26518C284.187 2.13611 282.091 2.16395 279.872 2.18714C279.725 2.18946 279.571 2.19174 279.419 2.19174V11.9836Z" fill="white"/>
<path d="M140.785 21.252H132.931L133.196 20.8624C133.23 20.8113 133.258 20.7627 133.281 20.7255C133.331 20.642 133.377 20.5678 133.449 20.5029C134.844 19.2922 134.844 19.2923 134.164 17.5088L133.653 16.1706C132.947 14.3059 132.947 14.3059 130.922 14.3059C130.497 14.3059 130.069 14.3059 129.641 14.3105C128.588 14.3152 127.499 14.3198 126.427 14.292C125.942 14.2734 125.772 14.401 125.636 14.83C125.197 16.1822 124.721 17.4879 124.271 18.7031C124.107 19.1415 124.181 19.3294 124.592 19.5358C125.029 19.7584 125.441 20.0159 125.919 20.3197C126.142 20.4589 126.383 20.6096 126.648 20.7719L127.409 21.2311H119.958L120.084 20.8925C120.118 20.7464 120.158 20.5887 120.309 20.5214C122.011 19.7816 122.627 18.3437 123.314 16.3955C124.724 12.3948 126.229 8.35466 127.685 4.44673L128.009 3.58169C128.331 2.7398 128.614 2.00688 127.843 1.06759L127.51 0.65715H128.034C128.374 0.65715 128.694 0.652462 128.997 0.650143C129.77 0.643185 130.439 0.63624 131.11 0.691902C131.481 0.719733 131.825 1.18123 131.945 1.48737C132.674 3.36828 133.398 5.25619 134.12 7.14174C135.548 10.8641 137.024 14.7117 138.532 18.4759C138.771 19.0696 139.272 19.5868 139.76 20.0924C139.999 20.3382 140.235 20.5818 140.447 20.8392L140.785 21.252ZM133.92 20.751H139.702C139.606 20.6513 139.507 20.547 139.406 20.4449C138.886 19.9068 138.348 19.3479 138.074 18.6637C136.564 14.8996 135.088 11.0497 133.66 7.32031C132.936 5.43476 132.214 3.54924 131.485 1.66602C131.395 1.43873 131.159 1.19753 131.071 1.18593C130.423 1.13491 129.765 1.14181 129.002 1.14877C128.841 1.15341 128.678 1.15344 128.51 1.15344C129.09 2.14608 128.763 3.00188 128.471 3.76259L128.147 4.6207C126.694 8.52863 125.188 12.5641 123.779 16.5625C123.245 18.0746 122.645 19.7793 120.992 20.7348H125.648C125.183 20.4426 124.786 20.1921 124.372 19.981C123.735 19.6633 123.558 19.1971 123.808 18.5222C124.257 17.3185 124.73 16.0152 125.165 14.6723C125.372 14.0276 125.735 13.7817 126.441 13.791C127.505 13.8189 128.591 13.8142 129.639 13.8096C130.067 13.8049 130.497 13.8026 130.922 13.8026C133.221 13.8026 133.313 13.8652 134.113 15.9873L134.623 17.3255C135.384 19.3154 135.384 19.4731 133.92 20.751ZM133.021 13.0836H125.763L128.965 4.0038L129.554 3.86926L133.021 13.0836ZM126.464 12.5804H132.304L129.29 4.57434L126.464 12.5804Z" fill="white"/>
<path d="M355.471 21.2568H347.604L350.02 19.413L349.629 18.3647C349.186 17.1587 348.726 15.9109 348.234 14.7049C348.172 14.5519 347.834 14.3339 347.645 14.3293C345.417 14.2805 343.387 14.2829 341.431 14.3385C341.247 14.3432 340.902 14.6099 340.819 14.8093C340.559 15.475 340.325 16.173 340.1 16.8433C339.884 17.4718 339.665 18.1305 339.421 18.7636C339.265 19.1672 339.323 19.304 339.704 19.5127C340.132 19.747 340.553 20.0044 341.038 20.3036C341.268 20.4451 341.509 20.5935 341.783 20.7559L342.55 21.2198H335.06L335.258 20.8509C335.267 20.8324 335.276 20.8092 335.285 20.7884C335.327 20.6933 335.37 20.568 335.506 20.5077C337.178 19.7238 337.833 18.1792 338.412 16.5348C339.256 14.139 340.146 11.7155 341.012 9.37304C341.785 7.27644 342.594 5.10328 343.353 2.96029C343.479 2.59617 343.443 2.14628 343.401 1.66619C343.383 1.42035 343.364 1.16291 343.364 0.905472V0.657325H343.61C343.803 0.657325 344.01 0.652621 344.227 0.647982C344.806 0.634067 345.466 0.615574 346.107 0.696748C346.526 0.745452 346.992 1.23479 347.144 1.64298C348.496 5.09865 349.843 8.62853 351.144 12.0378L352.181 14.7421C352.276 14.9903 352.375 15.2407 352.473 15.4935C352.676 16.0083 352.883 16.5209 353.062 17.0427C353.623 18.6778 354.175 19.9743 355.743 20.5657L356.088 20.6956L355.589 21.2383L355.471 21.2568ZM355.448 20.9878L355.471 21.011L355.448 20.9878ZM349.075 20.7605H354.979C353.529 19.9395 353.016 18.4413 352.591 17.2121C352.416 16.6949 352.214 16.1916 352.016 15.6814C351.912 15.4332 351.814 15.1781 351.719 14.9276L350.687 12.2234C349.386 8.81411 348.038 5.28882 346.687 1.83082C346.579 1.55483 346.247 1.22315 346.05 1.19764C345.438 1.12343 344.801 1.13969 344.24 1.15128C344.109 1.1536 343.985 1.1559 343.863 1.15822C343.872 1.32057 343.886 1.47831 343.895 1.6337C343.941 2.16481 343.976 2.6704 343.815 3.13193C343.052 5.28187 342.252 7.45271 341.475 9.55395C340.612 11.8941 339.718 14.313 338.879 16.7065C338.313 18.3067 337.676 19.8212 336.161 20.7281H340.773C340.297 20.4382 339.884 20.1831 339.472 19.9604C338.87 19.6334 338.718 19.2229 338.964 18.5874C339.203 17.9589 339.421 17.3141 339.633 16.6903C339.858 16.0107 340.095 15.308 340.359 14.6284C340.511 14.2434 341.033 13.8538 341.415 13.8399C343.38 13.7912 345.42 13.7912 347.652 13.8352C348.038 13.8445 348.551 14.1831 348.689 14.5194C349.183 15.7301 349.645 16.9848 350.089 18.1978L350.606 19.5939L349.075 20.7605ZM348.165 13.0884H340.9L344.429 3.12266L348.165 13.0884ZM341.603 12.5851H347.45L344.44 4.56751L341.603 12.5851Z" fill="white"/>
<path d="M34.5947 21.2691H28.2515L28.4653 20.8934C28.4883 20.847 28.5089 20.8076 28.525 20.7705C28.571 20.6708 28.6239 20.5548 28.748 20.4991C30.4126 19.706 31.054 18.2123 31.6127 16.6167C32.4519 14.2163 33.3485 11.7926 34.2153 9.44557C34.9901 7.35361 35.7925 5.18284 36.5489 3.0445C36.6868 2.66182 36.6477 2.1864 36.6086 1.68776C36.588 1.43264 36.5673 1.16818 36.5673 0.908424V0.658012H36.8133C37.0202 0.658012 37.2363 0.653362 37.4593 0.646404C38.0479 0.632489 38.7123 0.618526 39.3607 0.6997C39.8067 0.755362 40.2458 1.29348 40.3883 1.65761C42.6598 7.47659 44.4853 12.2148 46.1292 16.5727C46.1982 16.7559 46.2671 16.9414 46.3338 17.1223C46.8672 18.5927 47.3707 19.975 48.8605 20.7682L49.7433 21.239H40.8965L43.2507 19.4044L42.8576 18.3492C42.4116 17.1409 41.9518 15.8954 41.462 14.694C41.4 14.5433 41.0597 14.3346 40.8643 14.3299C38.7813 14.2859 36.6914 14.2859 34.6521 14.3323C34.4774 14.3369 34.1486 14.5619 34.0889 14.7219C33.8268 15.3968 33.59 16.0949 33.36 16.7698C33.137 17.4308 32.9048 18.1126 32.6519 18.7736C32.491 19.1887 32.5807 19.3186 32.9485 19.5181C33.3899 19.7593 33.8199 20.0213 34.2452 20.2834C34.4268 20.3971 34.6061 20.5061 34.7901 20.6174L34.9671 20.7241L34.7809 21.225L34.5947 21.2691ZM34.5625 21.007L34.5969 21.021L34.5625 21.007ZM29.3067 20.7728H34.0819C34.0521 20.7496 34.0222 20.7334 33.9923 20.7171C33.5692 20.4574 33.1508 20.1976 32.7163 19.9657C32.2657 19.7199 31.8909 19.3859 32.1921 18.5973C32.4427 17.9433 32.6726 17.2661 32.8933 16.6167C33.1255 15.9325 33.3623 15.2298 33.629 14.5456C33.7647 14.1977 34.2659 13.8429 34.6429 13.8382C36.6891 13.7895 38.7882 13.7896 40.878 13.8336C41.2344 13.8429 41.7701 14.1398 41.9195 14.5085C42.4138 15.7168 42.876 16.9692 43.3243 18.1776L43.8439 19.5784L42.3495 20.7426H47.9202C46.7959 19.8428 46.3269 18.5533 45.8717 17.2986C45.805 17.1177 45.7383 16.9368 45.6694 16.7558C44.0278 12.398 42.2024 7.6621 39.9309 1.84311C39.8182 1.55785 39.4894 1.2192 39.2986 1.19833C38.6893 1.12179 38.0709 1.13572 37.4731 1.14963C37.3352 1.15427 37.1995 1.15427 37.0708 1.15891C37.0777 1.32125 37.0914 1.49059 37.1029 1.65293C37.1466 2.20492 37.1903 2.73141 37.0179 3.21613C36.2592 5.36144 35.4568 7.52761 34.682 9.62421C33.8153 11.9666 32.9186 14.3925 32.0794 16.7837C31.546 18.3074 30.8885 19.8613 29.3067 20.7728ZM41.393 13.0706H34.1417L37.6662 3.11867L41.393 13.0706ZM34.8452 12.5673H40.678L37.68 4.5636L34.8452 12.5673Z" fill="white"/>
<path d="M5.99048 21.5831C5.08004 21.5831 4.17649 21.5228 3.27985 21.4625L2.89588 21.437C2.28893 21.393 1.70267 21.3164 1.07962 21.2306C0.799132 21.1888 0.516336 21.1541 0.231249 21.117L0.0128332 21.0891V15.0243L0.44735 15.5368C0.815204 15.9705 1.15779 16.3927 1.48656 16.7985C2.17629 17.6474 2.8269 18.4521 3.54882 19.1479C4.8639 20.4096 6.56755 20.2542 8.216 19.8947C9.55177 19.6048 10.3863 18.7443 10.63 17.4038C10.8392 16.2651 10.43 15.291 9.41841 14.5048C8.65051 13.9064 7.80444 13.3776 6.98366 12.8674C6.66869 12.6703 6.34913 12.4708 6.03415 12.269C5.60882 11.993 5.17199 11.7333 4.73516 11.4689C3.83392 10.9331 2.90737 10.3742 2.082 9.70164C0.562301 8.46548 -0.182586 6.78864 0.0381269 5.1095C0.263437 3.3863 1.44975 1.92517 3.29592 1.09952C5.17887 0.259951 7.1492 0.380546 9.05514 0.498828L9.63683 0.535986C10.2461 0.570775 10.8416 0.668143 11.4715 0.77019C11.7589 0.818894 12.0486 0.865257 12.3451 0.907003L12.5566 0.937154V6.82572L11.3221 5.35765C10.7841 4.71986 10.2898 4.13543 9.80466 3.54171C8.49877 1.9507 6.98595 1.5077 5.05012 2.14781C4.15578 2.44235 3.49365 3.11957 3.27753 3.95682C3.07521 4.73608 3.29362 5.54552 3.87069 6.17867C4.66157 7.0368 5.68698 7.72563 6.68249 8.39126L6.9469 8.56749C7.66421 9.04758 8.42059 9.50215 9.154 9.94745C9.96788 10.4391 10.8093 10.947 11.6117 11.4967C13.2809 12.6401 14.1223 14.3749 13.9246 16.2558C13.7154 18.248 12.3474 20.0385 10.4392 20.8224C8.97699 21.4231 7.48029 21.5831 5.99048 21.5831ZM0.507129 20.6531C0.723243 20.6809 0.937058 20.7065 1.14627 20.7389C1.76013 20.8201 2.33952 20.899 2.92809 20.9384L3.31433 20.9685C5.72608 21.1286 8.00215 21.2816 10.253 20.3586C11.9957 19.6419 13.2418 18.0115 13.4326 16.2002C13.6097 14.5094 12.844 12.9462 11.3335 11.9049C10.5449 11.3668 9.7081 10.8589 8.89882 10.3719C8.16311 9.93125 7.40211 9.4697 6.6733 8.98034L6.40889 8.8041C5.39039 8.12457 4.33741 7.41945 3.50974 6.51494C2.81311 5.75423 2.55564 4.77553 2.79934 3.82928C3.05684 2.82504 3.84082 2.02258 4.8938 1.67006C7.02276 0.967327 8.75397 1.47294 10.1863 3.22165C10.6691 3.81074 11.1634 4.39518 11.6991 5.03066L12.0623 5.46438V1.36854C11.837 1.33144 11.6117 1.29667 11.391 1.26188C10.7772 1.15984 10.1932 1.06475 9.60922 1.03228L9.02297 0.992856C7.17681 0.879213 5.26856 0.760942 3.49827 1.55412C1.81073 2.30788 0.730146 3.62753 0.527827 5.17214C0.332404 6.67965 1.01065 8.18945 2.3924 9.31661C3.19018 9.966 4.1029 10.5133 4.98575 11.0375C5.42947 11.3042 5.87093 11.5686 6.30316 11.8446C6.61353 12.0487 6.92848 12.2435 7.24576 12.4429C8.07573 12.9624 8.9333 13.4936 9.71958 14.1082C10.876 15.0057 11.3588 16.1769 11.1174 17.4943C10.8323 19.0482 9.86444 20.0454 8.31945 20.3817C6.53996 20.769 4.68688 20.9314 3.20856 19.5074C2.46366 18.7884 1.80154 17.9767 1.10491 17.1162C0.909492 16.875 0.711748 16.6316 0.507129 16.3811V20.6531Z" fill="white"/>
<path d="M248.913 21.6247C247.449 21.6247 246.157 21.3766 244.956 20.8687C242.455 19.8181 241.085 17.849 241.004 15.1796C240.901 11.9442 240.887 8.51636 240.956 4.05877C240.965 3.08005 240.8 2.37965 239.928 1.91116C239.735 1.80448 239.574 1.66996 239.372 1.49138C239.268 1.40325 239.156 1.30582 239.027 1.19914L238.471 0.756209H247.129L246.541 1.20381C246.366 1.336 246.196 1.45661 246.032 1.5749C245.678 1.82305 245.373 2.04109 245.124 2.3078C244.805 2.64873 244.602 3.03833 244.598 3.30272C244.552 6.82334 244.55 10.4205 244.589 14.3029C244.598 15.168 244.697 15.9658 244.894 16.6709C245.605 19.2128 247.759 20.3724 250.957 19.9363C253.7 19.5629 255.183 17.8537 255.249 14.9941C255.325 11.6173 255.298 8.17546 255.272 4.85198L255.259 3.27024C255.259 3.0615 255.084 2.74146 254.863 2.542C254.534 2.23586 254.171 1.9738 253.709 1.64447C253.502 1.4914 253.277 1.33138 253.031 1.14584L252.433 0.698242H259.519L258.985 1.13657C258.815 1.28036 258.67 1.4056 258.537 1.5262C258.264 1.77204 258.024 1.98309 257.746 2.14543C257.086 2.51883 256.965 3.0383 256.974 3.79902C257.022 7.7742 257.022 11.0791 256.965 14.1962C256.946 15.2746 256.767 16.3786 256.443 17.3898C255.721 19.6511 254.022 21.0055 251.401 21.4091C250.516 21.5506 249.69 21.6247 248.913 21.6247ZM239.857 1.2525C239.97 1.34295 240.064 1.41484 240.163 1.4705C241.317 2.09206 241.46 3.08238 241.448 4.06111C241.386 8.51406 241.402 11.9373 241.501 15.1587C241.577 17.6241 242.839 19.4401 245.152 20.4095C246.899 21.1424 248.856 21.3047 251.332 20.9197C253.753 20.544 255.318 19.3055 255.978 17.2391C256.284 16.2766 256.454 15.2213 256.477 14.1916C256.53 11.0792 256.53 7.77884 256.482 3.80829C256.473 3.02902 256.585 2.23818 257.509 1.71171C257.726 1.58879 257.923 1.41483 258.165 1.19914H253.944C253.967 1.21305 253.985 1.22466 253.997 1.2409C254.454 1.57023 254.845 1.85319 255.194 2.17325C255.463 2.41677 255.751 2.86437 255.751 3.27024L255.764 4.85431C255.792 8.18011 255.817 11.6242 255.741 15.0103C255.67 18.1042 253.994 20.0314 251.021 20.4373C247.596 20.9012 245.189 19.5792 244.416 16.8124C244.209 16.0632 244.101 15.219 244.087 14.3168C244.051 10.4297 244.055 6.82564 244.101 3.30039C244.106 2.73681 244.563 2.18253 244.756 1.9738C245.007 1.70477 245.304 1.48446 245.619 1.25717H239.857V1.2525Z" fill="white"/>
<path d="M316.627 21.2552H308.449L308.789 20.847C308.835 20.7914 308.87 20.738 308.907 20.6963C308.978 20.5919 309.047 20.4922 309.166 20.4365C310.41 19.8706 310.636 18.9336 310.603 17.4053C310.546 13.9797 310.555 10.5009 310.562 7.14028C310.567 5.82759 310.571 4.5126 310.571 3.20454V2.19334C310.346 2.19334 310.127 2.19331 309.907 2.18867C309.091 2.18403 308.309 2.17941 307.532 2.22116C307.479 2.22348 307.334 2.28382 307.028 2.65722C306.373 3.46432 305.727 4.28069 305.017 5.17592L303.754 6.76919V0.718262H321.092V6.69035L320.653 6.1569C320.432 5.88554 320.218 5.63972 320.007 5.41012C319.574 4.93235 319.172 4.47782 318.894 3.95599C317.924 2.12611 316.473 1.93591 314.305 2.27452V3.15811C314.305 4.46385 314.305 5.77192 314.31 7.07998C314.314 10.6516 314.323 14.3415 314.282 17.9735C314.273 19.038 314.438 19.7408 315.337 20.1791C315.517 20.2649 315.657 20.4017 315.822 20.5548C315.907 20.6336 316.002 20.7195 316.11 20.8145L316.627 21.2552ZM309.64 20.7589H315.307C315.245 20.7033 315.181 20.6592 315.119 20.6244C314.001 20.0747 313.776 19.1632 313.79 17.9665C313.827 14.3369 313.822 10.647 313.817 7.07764C313.813 5.76959 313.813 4.46158 313.813 3.15585V1.8524L314.02 1.81298C316.018 1.47437 318.075 1.34219 319.333 3.71478C319.579 4.18095 319.949 4.59372 320.375 5.06685C320.45 5.15034 320.526 5.23619 320.604 5.322V1.21463H304.256V5.34054L304.637 4.86046C305.348 3.96523 305.994 3.14884 306.654 2.33943C306.895 2.04256 307.187 1.73875 307.516 1.72019C308.307 1.67613 309.088 1.68082 309.918 1.68778C310.215 1.69009 310.516 1.69238 310.829 1.69238H311.07V3.19987C311.07 4.50793 311.066 5.82299 311.061 7.13568C311.052 10.4963 311.043 13.9751 311.107 17.3914C311.128 18.6786 311.029 19.9843 309.64 20.7589Z" fill="white"/>
<path d="M168.16 21.2387H160.316L160.366 20.8861C160.373 20.798 160.383 20.6333 160.539 20.5637C161.98 19.9004 162.063 18.6898 162.169 17.1661C162.413 13.6269 161.617 10.8624 159.668 8.47356C159.171 7.8636 158.769 7.17013 158.38 6.50219C158.088 6.00355 157.789 5.48404 157.454 5.01324C156.784 4.0693 156.051 3.1393 155.343 2.24639C155.03 1.85212 154.718 1.46015 154.41 1.06355L154.099 0.657715H161.507L161.783 1.16788L159.962 2.56645L164.877 10.4982L169.719 2.6615L166.85 0.73189H173.805L173.749 1.02647C173.745 1.0543 173.743 1.07517 173.74 1.09604C173.736 1.18417 173.722 1.33489 173.579 1.41143C171.883 2.29042 170.958 3.82576 169.977 5.44923L169.825 5.69971C169.324 6.52768 168.809 7.35332 168.291 8.17665C167.609 9.27365 166.898 10.4055 166.231 11.5372C165.979 11.9733 165.811 12.5693 165.79 13.1352C165.762 13.9075 165.769 14.6984 165.776 15.4661C165.783 16.3195 165.788 17.2009 165.746 18.0706C165.693 19.1444 165.979 19.7103 166.758 20.0837C166.963 20.1834 167.13 20.3365 167.321 20.5127C167.413 20.5985 167.514 20.6936 167.634 20.7957L168.16 21.2387ZM161.238 20.7401H166.829C166.73 20.6542 166.638 20.5846 166.546 20.5359C165.321 19.9468 165.213 18.8962 165.252 18.0497C165.296 17.1962 165.289 16.3218 165.28 15.4753C165.273 14.703 165.266 13.9052 165.298 13.1167C165.321 12.4649 165.505 11.797 165.806 11.2868C166.475 10.1503 167.188 9.01163 167.875 7.91463C168.388 7.0913 168.903 6.26793 169.404 5.43996L169.554 5.19181C170.441 3.72373 171.356 2.20697 172.89 1.23753H168.485L170.39 2.52002L164.877 11.4422L159.304 2.44811L160.978 1.16328H155.115C155.32 1.42304 155.525 1.68047 155.729 1.94254C156.442 2.84009 157.175 3.7724 157.854 4.72793C158.205 5.21729 158.509 5.74375 158.805 6.25631C159.185 6.90801 159.576 7.58061 160.049 8.15811C162.084 10.6513 162.914 13.5272 162.663 17.2009C162.567 18.5901 162.475 19.9144 161.238 20.7401Z" fill="white"/>
<path d="M97.002 25.8192L97.4848 25.3043C97.5239 25.2602 97.5607 25.2185 97.5905 25.1791C97.6641 25.091 97.7331 25.0098 97.8389 24.9495C99.3953 24.0775 100.159 22.6603 100.17 20.6217C100.2 15.2596 100.198 9.57052 100.168 3.23898C100.166 2.99082 99.9816 2.62439 99.6988 2.3113C99.4666 2.05618 99.1769 1.84513 98.8712 1.62249C98.7378 1.5274 98.6044 1.42764 98.4734 1.32791L98.324 1.20738L98.5539 0.657715L104.918 0.662315C105.026 0.662315 105.132 0.671615 105.279 0.685531L106.058 0.748098L105.718 1.12152C105.653 1.19342 105.607 1.25139 105.568 1.30009C105.483 1.40678 105.41 1.49725 105.295 1.55291C104.049 2.13736 103.821 3.11606 103.849 4.59805C103.938 9.33859 103.906 14.0444 103.874 18.597C103.844 22.6024 101.596 25.1976 97.694 25.7218L97.002 25.8192ZM99.0757 1.15634C99.1056 1.17954 99.131 1.20041 99.1609 1.21665C99.4735 1.44625 99.7953 1.68049 100.064 1.97503C100.202 2.1281 100.655 2.67314 100.66 3.23672C100.692 9.57058 100.694 15.262 100.662 20.6264C100.653 22.5815 99.9655 24.0659 98.6205 25.0399C101.676 24.2816 103.354 22.0226 103.38 18.5947C103.412 14.0467 103.444 9.34324 103.354 4.60966C103.331 3.35031 103.435 1.94949 104.968 1.16094H104.918L99.0757 1.15634Z" fill="white"/>
<path d="M149.45 35.5375C150.08 35.5375 150.713 35.5223 151.341 35.549C151.449 35.5528 151.591 35.6827 151.651 35.7935C152.523 37.4016 153.383 39.0135 154.248 40.6255C154.301 40.7286 154.358 40.8279 154.459 41.0093C154.662 40.5854 154.836 40.2378 154.999 39.8825C155.623 38.5437 156.249 37.2087 156.866 35.8641C156.973 35.6311 157.101 35.5127 157.389 35.5242C158.003 35.5509 158.619 35.5318 159.327 35.5318C159.191 35.677 159.132 35.7706 159.047 35.8222C158.633 36.0914 158.54 36.4543 158.55 36.926C158.581 38.5418 158.575 40.1556 158.552 41.7695C158.546 42.1839 158.617 42.5182 159.011 42.7378C159.106 42.7913 159.183 42.8715 159.355 43.0109H156.334C156.387 42.9402 156.405 42.8906 156.442 42.8696C157.014 42.564 157.068 42.0713 157.056 41.4964C157.026 40.0048 157.048 38.5112 156.967 36.9757C156.89 37.1036 156.801 37.2297 156.734 37.3634C155.878 39.1625 155.025 40.9673 154.167 42.7645C154.113 42.8772 154.011 42.9632 153.93 43.0587C153.841 42.9689 153.727 42.8925 153.669 42.7856C152.774 41.124 151.883 39.4585 150.993 37.7931C150.934 37.6785 150.865 37.5696 150.717 37.4703C150.707 37.5907 150.69 37.7129 150.69 37.8313C150.688 39.1682 150.701 40.509 150.68 41.8497C150.676 42.2088 150.759 42.4666 151.104 42.6423C151.264 42.7225 151.4 42.8467 151.631 43.0109H149.395C149.513 42.9001 149.579 42.8123 149.667 42.7684C150.151 42.522 150.236 42.1305 150.23 41.632C150.2 40.0067 150.208 38.3814 150.226 36.7541C150.23 36.3951 150.151 36.1335 149.813 35.9539C149.657 35.8737 149.537 35.7362 149.403 35.6273C149.417 35.6006 149.435 35.5681 149.45 35.5375Z" fill="white"/>
<path d="M220.279 37.3594C219.991 38.2132 219.729 38.9921 219.466 39.7652C219.131 40.759 218.787 41.7547 218.468 42.7543C218.404 42.9615 218.307 43.044 218.069 43.0478C217.252 43.067 217.252 43.0766 217.009 42.3591C216.347 40.3926 215.683 38.4223 215.004 36.4559C214.94 36.2659 214.779 36.0952 214.632 35.936C214.505 35.8036 214.348 35.6999 214.131 35.5234H217.328C217.146 35.6808 217.022 35.8189 216.863 35.9206C216.629 36.0664 216.587 36.2314 216.66 36.475C217.152 38.0175 217.63 39.56 218.114 41.1025C218.17 41.2828 218.245 41.4555 218.39 41.6204C218.704 40.6593 219.021 39.6962 219.327 38.735C219.464 38.3187 219.594 37.9062 219.727 37.4918C219.892 36.9719 220.207 36.4578 219.764 35.8439C220.366 35.8439 220.854 35.8323 221.345 35.8553C221.417 35.8592 221.515 36.0127 221.544 36.1144C221.964 37.4113 222.371 38.712 222.785 40.0108C222.959 40.5615 223.137 41.112 223.392 41.6627C223.659 40.853 223.925 40.0434 224.184 39.2357C224.464 38.3743 224.722 37.5072 225.02 36.6515C225.122 36.3676 225.101 36.1777 224.826 36.0069C224.635 35.8861 224.47 35.7306 224.211 35.5311H226.581C226.334 35.7249 226.127 35.8592 225.962 36.028C225.813 36.1796 225.655 36.3542 225.585 36.5441C224.89 38.5796 224.203 40.6152 223.528 42.6584C223.427 42.9557 223.282 43.0727 222.93 43.0574C222.251 43.0267 222.247 43.0498 222.04 42.4358C221.515 40.8761 220.993 39.3221 220.463 37.7624C220.426 37.6511 220.368 37.5494 220.279 37.3594Z" fill="white"/>
<path d="M127.057 35.5234C128.74 35.5806 130.428 35.5902 132.104 35.7198C133.083 35.7942 133.935 36.1946 134.27 37.0469C134.628 37.9507 134.169 38.8144 133.101 39.312C132.878 39.4207 132.642 39.5027 132.364 39.6171C132.665 39.9985 132.943 40.355 133.223 40.7097C133.427 40.9671 133.655 41.2169 133.841 41.4857C134.24 42.0673 134.722 42.5687 135.462 42.8795C135.531 42.9081 135.584 42.9672 135.701 43.0568H132.189C132.922 42.5992 132.474 42.2541 132.199 41.8918C131.799 41.3675 131.409 40.8374 131.016 40.3112C130.58 39.7201 130.548 39.7087 129.606 39.8478C129.606 40.6582 129.599 41.4781 129.617 42.2999C129.62 42.3933 129.748 42.4981 129.847 42.5744C130.04 42.7231 130.251 42.8585 130.538 43.0587H126.986C127.069 42.9672 127.101 42.9062 127.156 42.8795C127.762 42.603 127.831 42.1626 127.817 41.6401C127.783 40.0271 127.79 38.4197 127.817 36.8067C127.824 36.4082 127.707 36.1164 127.303 35.8972C127.188 35.8381 127.098 35.7446 127 35.6702C127.018 35.6188 127.039 35.5711 127.057 35.5234ZM129.604 37.6685C129.604 38.1451 129.613 38.6218 129.599 39.0985C129.592 39.3101 129.675 39.4112 129.944 39.394C130.288 39.3731 130.635 39.3731 130.977 39.3407C131.889 39.2434 132.414 38.8297 132.541 38.088C132.589 37.8172 132.589 37.5369 132.545 37.2662C132.426 36.5035 131.914 36.1031 130.991 36.0249C130.66 35.9963 130.327 36.0078 129.999 35.9887C129.702 35.9677 129.585 36.0573 129.597 36.3128C129.617 36.7628 129.604 37.2166 129.604 37.6685Z" fill="white"/>
<path d="M111.181 39.1324C111.561 39.2646 111.91 39.3623 112.231 39.5041C112.966 39.8259 113.328 40.3431 113.29 41.0557C113.252 41.7568 112.883 42.3066 112.13 42.5614C111.447 42.7893 110.703 42.9694 109.97 43.0096C108.675 43.0882 107.371 43.0479 106.07 43.0517C106.021 43.0517 105.967 43.0307 105.874 43.0096C105.933 42.9464 105.958 42.8851 106.007 42.8602C106.612 42.5786 106.69 42.1265 106.677 41.5844C106.641 39.9753 106.648 38.3662 106.677 36.7609C106.684 36.3452 106.571 36.0387 106.151 35.8223C106.043 35.7667 105.946 35.6997 105.823 35.6231C105.928 35.5598 105.96 35.5234 105.991 35.5234C107.585 35.5579 109.181 35.579 110.775 35.6384C111.089 35.6479 111.408 35.7572 111.701 35.8664C113.088 36.3874 113.281 37.9026 112.063 38.6804C111.806 38.8413 111.512 38.9619 111.181 39.1324ZM108.423 39.3432C108.423 40.4466 108.419 41.4542 108.437 42.456C108.439 42.5269 108.628 42.6571 108.731 42.6571C109.152 42.6571 109.577 42.6342 109.992 42.5882C110.761 42.502 111.233 42.1342 111.411 41.4829C111.667 40.5442 111.224 39.7052 110.244 39.4925C109.684 39.3738 109.08 39.393 108.423 39.3432ZM108.423 37.439C108.423 37.8605 108.412 38.2781 108.43 38.6957C108.435 38.7895 108.522 38.9428 108.605 38.962C110.042 39.3106 111.265 38.3451 110.997 37.0942C110.873 36.5176 110.512 36.125 109.833 35.9985C109.48 35.9315 109.107 35.9372 108.74 35.9085C108.5 35.8855 108.412 35.9832 108.419 36.1824C108.428 36.6 108.423 37.0195 108.423 37.439Z" fill="white"/>
<path d="M273.137 43.0587H270.178C270.239 42.9781 270.259 42.9186 270.304 42.8937C270.818 42.6173 270.903 42.1836 270.895 41.652C270.859 40.0401 270.867 38.428 270.891 36.818C270.895 36.3958 270.814 36.0657 270.429 35.8431C270.332 35.7874 270.247 35.7222 270.154 35.6608C270.174 35.6301 270.194 35.6033 270.212 35.5745C270.289 35.5591 270.366 35.536 270.443 35.536C271.523 35.536 272.611 35.4958 273.688 35.5591C274.278 35.5956 274.906 35.7145 275.444 35.9525C276.791 36.5551 276.933 38.217 275.744 39.0825C275.465 39.284 275.153 39.4279 274.81 39.6159C275.13 40.0899 275.446 40.5601 275.762 41.0265C276.02 41.4084 276.244 41.8171 276.552 42.1587C276.848 42.4849 277.235 42.7325 277.624 43.0491H274.778C274.774 43.0203 274.758 42.9858 274.766 42.9762C275.114 42.6653 275.009 42.3794 274.766 42.0474C274.373 41.4966 273.98 40.9344 273.678 40.3318C273.403 39.7829 273.014 39.6927 272.416 39.8232V40.7635C272.416 40.8844 272.412 41.0034 272.416 41.1243C272.416 41.4966 272.323 41.8977 272.443 42.2335C272.554 42.5425 272.886 42.7709 273.137 43.0587ZM272.42 37.6547C272.42 38.1344 272.424 38.6142 272.416 39.094C272.412 39.2916 272.489 39.3856 272.702 39.3741C273.07 39.3453 273.447 39.3531 273.806 39.2878C274.28 39.2014 274.697 38.9481 274.825 38.4895C274.938 38.0711 274.995 37.6086 274.934 37.1826C274.829 36.3881 274.395 36.0465 273.565 35.9755C273.318 35.9525 273.072 35.9678 272.825 35.9429C272.528 35.916 272.4 36.0158 272.416 36.3248C272.438 36.7662 272.42 37.2133 272.42 37.6547Z" fill="white"/>
<path d="M264.377 40.4065C264.086 40.0972 263.891 39.8478 263.656 39.641C263.528 39.5327 263.339 39.4438 263.17 39.4341C262.644 39.4071 262.112 39.4341 261.582 39.4225C261.339 39.4148 261.244 39.4844 261.244 39.728C261.256 40.6017 261.256 41.4736 261.244 42.3454C261.244 42.5755 261.311 42.674 261.566 42.6702C262.186 42.6547 262.805 42.6817 263.421 42.6547C263.582 42.6469 263.774 42.5368 263.891 42.4169C264.311 41.9839 264.702 41.5296 265.174 41.0077V43.0587H258.977C259.028 42.9795 259.048 42.9273 259.084 42.9079C259.668 42.6083 259.696 42.1076 259.688 41.5489C259.66 39.9522 259.664 38.3535 259.688 36.7529C259.692 36.3412 259.614 36.0183 259.232 35.7999C259.138 35.7477 259.048 35.68 258.949 35.6182L259.007 35.5234H265.068V37.5745C264.628 37.0951 264.244 36.6911 263.887 36.26C263.686 36.0145 263.475 35.914 263.15 35.9294C262.62 35.9526 262.088 35.9429 261.558 35.9333C261.335 35.9294 261.244 35.9913 261.244 36.2174C261.256 37.0564 261.256 37.8896 261.244 38.7247C261.244 38.974 261.351 39.0455 261.586 39.0301C261.787 39.0146 261.993 39.0088 262.19 39.0301C262.989 39.1055 263.728 39.0378 264.206 38.3052C264.23 38.2723 264.285 38.2627 264.379 38.2105V40.4065H264.377Z" fill="white"/>
<path d="M230.316 35.5234H236.426V37.5932C235.974 37.0883 235.579 36.6663 235.207 36.2192C235.044 36.0207 234.861 35.9455 234.597 35.9513C233.965 35.9648 233.331 35.9571 232.649 35.9571V37.1847C232.649 37.7069 232.657 38.2215 232.649 38.7418C232.645 38.9519 232.711 39.0464 232.947 39.0425C233.498 39.029 234.046 39.054 234.597 39.027C234.748 39.0213 234.919 38.9269 235.044 38.8267C235.265 38.6455 235.464 38.4354 235.744 38.1637V40.4108C235.507 40.1506 235.324 39.981 235.177 39.7864C234.965 39.5031 234.704 39.4067 234.343 39.426C233.882 39.4587 233.418 39.424 232.957 39.4433C232.852 39.4472 232.669 39.5551 232.669 39.6167C232.649 40.615 232.657 41.6114 232.657 42.654C233.452 42.654 234.213 42.6617 234.971 42.6424C235.068 42.6405 235.177 42.521 235.255 42.4362C235.585 42.0739 235.911 41.7058 236.233 41.3377C236.31 41.2472 236.358 41.1315 236.424 41.0294C236.463 41.0602 236.501 41.0872 236.541 41.1142V43.0587H230.379C230.445 42.9758 230.465 42.9277 230.507 42.9046C231.049 42.6155 231.117 42.1472 231.109 41.5902C231.073 39.9752 231.085 38.3584 231.105 36.7415C231.113 36.3348 231.008 36.0438 230.658 35.8221C230.56 35.7643 230.483 35.6738 230.316 35.5234Z" fill="white"/>
<path d="M205.47 43.003C205.498 42.9511 205.502 42.9165 205.516 42.9088C206.128 42.5897 206.174 42.0687 206.166 41.4671C206.13 39.9043 206.134 38.3395 206.162 36.7767C206.17 36.3538 206.084 36.0232 205.696 35.7983C205.598 35.7445 205.512 35.6772 205.418 35.6176C205.438 35.5868 205.46 35.558 205.48 35.5234H211.494V37.5668C211.057 37.0785 210.664 36.6691 210.301 36.2347C210.118 36.0117 209.921 35.9252 209.631 35.9387C209.105 35.9579 208.581 35.954 208.05 35.9387C207.801 35.931 207.691 35.9963 207.695 36.2616C207.711 37.0651 207.711 37.8724 207.695 38.6798C207.691 38.9585 207.805 39.0411 208.076 39.0219C208.272 39.0027 208.477 38.9989 208.676 39.0219C209.46 39.1046 210.172 39.0181 210.642 38.3049C210.662 38.2703 210.716 38.2569 210.81 38.2069V40.3945C210.525 40.085 210.331 39.8389 210.098 39.6333C209.972 39.5218 209.783 39.4333 209.616 39.4256C209.089 39.3968 208.569 39.4256 208.038 39.4122C207.801 39.4045 207.695 39.4718 207.699 39.7159C207.707 40.5944 207.707 41.4729 207.699 42.3513C207.695 42.5763 207.797 42.6397 208.014 42.6377C208.631 42.6301 209.245 42.6493 209.857 42.6243C210.016 42.6166 210.212 42.5108 210.323 42.3936C210.74 41.963 211.129 41.5113 211.57 41.0269C211.601 41.1403 211.639 41.1999 211.639 41.2595C211.643 41.765 211.639 42.2706 211.643 42.7743C211.643 42.9319 211.635 43.0587 211.41 43.0587C209.466 43.0549 207.528 43.0549 205.584 43.051C205.552 43.051 205.52 43.028 205.47 43.003Z" fill="white"/>
<path d="M165.991 35.5294C166.369 35.5294 166.767 35.5102 167.162 35.5409C167.254 35.5486 167.375 35.6985 167.417 35.8099C168.195 37.9085 168.958 40.0147 169.741 42.1132C169.819 42.3227 169.986 42.5033 170.132 42.6801C170.232 42.8012 170.367 42.8934 170.557 43.0587H167.683C167.726 42.9914 167.74 42.9473 167.771 42.9223C168.299 42.4207 168.299 42.4207 168.066 41.7289C167.954 41.4003 167.858 41.0659 167.713 40.7545C167.657 40.6354 167.491 40.5144 167.371 40.5105C166.689 40.4836 166.005 40.5066 165.323 40.4913C165.13 40.4874 165.036 40.5662 164.976 40.7507C164.831 41.2043 164.679 41.6578 164.524 42.1094C164.459 42.3016 164.509 42.4207 164.678 42.5245C164.911 42.6648 165.134 42.83 165.345 43.051H163.087C163.256 42.9127 163.353 42.8031 163.471 42.7359C163.829 42.5225 164.015 42.192 164.151 41.7904C164.754 40.0031 165.387 38.2294 165.98 36.4422C166.065 36.1866 165.991 35.8733 165.991 35.5294ZM167.462 40.0185C167.086 38.95 166.726 37.9315 166.366 36.913C166.333 36.9111 166.3 36.9111 166.268 36.9111C165.926 37.9315 165.586 38.9558 165.233 40.0185H167.462Z" fill="white"/>
<path d="M119.251 35.5288C119.655 35.5288 120.136 35.5095 120.619 35.5441C120.725 35.548 120.858 35.7132 120.91 35.8246C121.833 37.926 122.729 40.0371 123.679 42.129C123.834 42.469 124.21 42.7341 124.496 43.0472H121.174C121.311 42.9357 121.391 42.8455 121.496 42.7898C121.906 42.5823 121.99 42.3268 121.775 41.9369C121.571 41.5757 121.434 41.1781 121.283 40.7939C121.204 40.5865 121.092 40.4847 120.824 40.4885C120.024 40.5039 119.227 40.5039 118.43 40.4885C118.181 40.4847 118.067 40.575 117.994 40.769C117.824 41.2089 117.65 41.6526 117.47 42.0906C117.392 42.2807 117.429 42.4056 117.631 42.5112C117.919 42.6611 118.194 42.834 118.447 43.0587H115.781C115.914 42.9473 115.981 42.8685 116.067 42.8263C116.619 42.5535 116.889 42.1251 117.096 41.5988C117.753 39.9257 118.475 38.2679 119.137 36.5948C119.259 36.2913 119.214 35.9379 119.251 35.5288ZM120.961 40.0198C120.506 38.9384 120.078 37.926 119.653 36.9176C119.612 36.9195 119.573 36.9195 119.532 36.9214C119.128 37.9376 118.727 38.9557 118.308 40.0198H120.961Z" fill="white"/>
<path d="M188.615 37.5638C188.344 37.2286 188.033 36.9233 187.808 36.5582C187.423 35.9365 186.884 35.8204 186.25 35.9215C185.496 36.0395 185.171 36.8335 185.658 37.4477C185.869 37.7136 186.151 37.929 186.431 38.1218C187.062 38.5563 187.736 38.9364 188.349 39.3971C189.333 40.1311 189.51 41.2284 188.818 42.1085C188.43 42.6029 187.891 42.8351 187.302 42.968C186.367 43.1721 185.445 42.9774 184.521 42.91C184.433 42.9062 184.278 42.7752 184.278 42.6984C184.256 42.1366 184.267 41.5748 184.274 41.013C184.278 40.9868 184.31 40.9587 184.359 40.8932C184.722 41.3595 185.05 41.837 185.438 42.2546C185.871 42.7153 186.443 42.7265 187.017 42.631C187.45 42.5617 187.772 42.3351 187.927 41.8913C188.097 41.4082 187.968 40.985 187.613 40.6835C187.194 40.3296 186.721 40.0468 186.274 39.7285C185.797 39.3914 185.279 39.0993 184.86 38.7004C183.922 37.8166 184.099 36.4739 185.227 35.8728C185.597 35.6725 186.041 35.5433 186.458 35.5283C187.109 35.5002 187.77 35.6013 188.425 35.6462C188.643 35.6593 188.743 35.7623 188.735 36.002C188.721 36.5095 188.732 37.0189 188.732 37.5245C188.689 37.5395 188.652 37.5526 188.615 37.5638Z" fill="white"/>
<path d="M285.636 37.6287C285.212 37.2093 284.799 36.8854 284.503 36.4979C284.026 35.8894 283.351 35.8351 282.606 35.9231C281.676 36.0298 281.265 36.8143 281.848 37.4227C282.112 37.6961 282.482 37.9226 282.843 38.1248C283.629 38.5592 284.471 38.9355 285.234 39.398C286.487 40.1506 286.686 41.3039 285.762 42.1671C285.282 42.6127 284.647 42.8355 283.95 42.9628C282.773 43.1762 281.604 42.9759 280.43 42.9122C280.329 42.9066 280.148 42.8149 280.144 42.7587C280.125 42.1577 280.134 41.5567 280.134 40.9539C280.175 40.9426 280.213 40.9295 280.254 40.9164C280.581 41.2459 280.938 41.5567 281.225 41.9069C281.816 42.6389 282.654 42.755 283.611 42.6239C284.153 42.5472 284.546 42.3019 284.722 41.8563C284.893 41.4182 284.778 41.0063 284.37 40.731C283.753 40.3248 283.065 39.9915 282.417 39.617C281.88 39.3119 281.302 39.0423 280.834 38.6791C279.719 37.816 279.922 36.5054 281.261 35.91C281.742 35.6947 282.324 35.5524 282.871 35.5299C283.686 35.4962 284.512 35.6029 285.331 35.6478C285.609 35.6628 285.724 35.7714 285.711 36.0092C285.692 36.4304 285.711 36.8536 285.702 37.2786C285.704 37.361 285.677 37.4471 285.636 37.6287Z" fill="white"/>
<path d="M138.299 35.5234H141.232C140.991 35.722 140.804 35.8449 140.663 36.0076C140.552 36.1362 140.429 36.314 140.428 36.4766C140.408 37.7664 140.408 39.0581 140.424 40.3498C140.428 40.6997 140.47 41.059 140.552 41.3994C140.685 41.9536 141.022 42.3469 141.602 42.5077C142.187 42.6684 142.775 42.6647 143.331 42.4302C144.119 42.1011 144.384 41.4089 144.403 40.6449C144.441 39.234 144.424 37.8231 144.415 36.4161C144.413 36.3007 144.308 36.1645 144.212 36.0757C144.023 35.9017 143.807 35.7541 143.521 35.5367H145.66C145.479 35.7012 145.349 35.8468 145.192 35.9527C144.961 36.1116 144.883 36.3026 144.886 36.5825C144.902 37.7551 144.9 38.9276 144.888 40.0983C144.887 40.4293 144.858 40.7621 144.804 41.0855C144.661 42.0046 144.143 42.6174 143.23 42.8765C142.29 43.1413 141.348 43.1261 140.435 42.7743C139.316 42.3488 138.939 41.441 138.926 40.3441C138.911 39.147 138.901 37.9499 138.93 36.7546C138.939 36.3367 138.848 36.0171 138.475 35.8015C138.383 35.7466 138.286 35.7012 138.19 35.652C138.227 35.6085 138.261 35.565 138.299 35.5234Z" fill="white"/>
<path d="M95.8577 35.5234V37.5661C95.66 37.3325 95.5167 37.1722 95.3788 37.0081C95.2301 36.8247 95.0633 36.6509 94.9454 36.4482C94.6751 35.9675 94.2797 35.8633 93.7863 35.9038C93.5215 35.9289 93.4345 36.0119 93.4363 36.2918C93.4472 37.6105 93.4417 38.9291 93.4417 40.2458C93.4417 40.7921 93.4635 41.3366 93.4345 41.8791C93.4127 42.2537 93.5016 42.5355 93.8027 42.7401C93.9061 42.8096 93.9877 42.9158 94.1364 43.0587H91.3632C91.5409 42.8869 91.6987 42.7769 91.8039 42.6205C91.9127 42.4544 92.0379 42.2517 92.0397 42.0664C92.0542 40.155 92.0415 38.2437 92.056 36.3343C92.0578 35.9791 91.9309 35.927 91.637 35.8999C91.1727 35.8632 90.8372 35.9984 90.5651 36.4173C90.3112 36.8093 89.9901 37.1491 89.6328 37.5854V35.5234H95.8577Z" fill="white"/>
<path d="M240.343 43.0331C240.386 42.9505 240.386 42.9159 240.406 42.9101C241.043 42.5833 241.064 42.0374 241.051 41.43C241.019 39.8578 241.027 38.2778 241.051 36.7036C241.06 36.3134 240.957 36.029 240.618 35.8175C240.515 35.7541 240.432 35.6638 240.279 35.5234H243.325C243.361 35.5619 243.4 35.6003 243.436 35.6388C243.333 35.6849 243.23 35.7234 243.138 35.7772C242.688 36.0232 242.597 36.3884 242.605 36.8651C242.641 38.6603 242.625 40.4498 242.613 42.245C242.609 42.541 242.7 42.6468 243.018 42.6352C243.563 42.6122 244.11 42.6199 244.655 42.6352C244.915 42.6429 245.08 42.5525 245.226 42.3565C245.514 41.9778 245.821 41.6107 246.127 41.2398C246.214 41.1321 246.313 41.0322 246.408 40.9265C246.44 40.938 246.466 40.9495 246.503 40.9611C246.503 41.6031 246.511 42.245 246.482 42.887C246.482 42.9466 246.271 43.0485 246.147 43.0504C245.032 43.0619 243.918 43.0581 242.803 43.0581C242.117 43.0581 241.431 43.0581 240.745 43.0562C240.628 43.0542 240.501 43.0446 240.343 43.0331Z" fill="white"/>
<path d="M256.461 40.9581C256.461 41.6038 256.469 42.2495 256.445 42.8952C256.445 42.9509 256.225 43.049 256.106 43.049C254.431 43.0605 252.756 43.0586 251.077 43.0586H250.262C250.356 42.9394 250.381 42.8798 250.427 42.8568C250.974 42.5743 251.034 42.115 251.022 41.5731C250.99 39.9607 250.998 38.3503 251.022 36.7361C251.026 36.3402 250.94 36.0347 250.576 35.8194C250.473 35.756 250.395 35.6618 250.237 35.5234H253.383C253.151 35.7195 252.962 35.854 252.812 36.0193C252.709 36.1365 252.596 36.2979 252.596 36.4401C252.58 38.4022 252.588 40.3624 252.58 42.3264C252.58 42.5666 252.671 42.6416 252.915 42.6377C253.498 42.6224 254.082 42.6531 254.665 42.6185C254.838 42.6108 255.046 42.5013 255.161 42.3725C255.579 41.9056 255.958 41.4117 256.352 40.9293C256.39 40.937 256.427 40.9504 256.461 40.9581Z" fill="white"/>
<path d="M180.515 40.9582C180.515 41.6003 180.527 42.2462 180.5 42.8883C180.498 42.9479 180.283 43.0498 180.161 43.0498C178.988 43.0632 177.813 43.0575 176.639 43.0575C176 43.0575 175.362 43.0575 174.723 43.0575C174.601 43.0575 174.477 43.046 174.301 43.0344C174.372 42.9441 174.392 42.8845 174.439 42.8595C174.966 42.5826 175.054 42.152 175.044 41.6157C175.009 40.0008 175.017 38.3859 175.042 36.773C175.048 36.352 174.966 36.0213 174.567 35.7945C174.469 35.7426 174.382 35.6715 174.292 35.6061L174.345 35.5234H177.319C177.36 35.5638 177.404 35.6061 177.447 35.6465C177.344 35.6888 177.232 35.7176 177.135 35.7734C176.684 36.0175 176.59 36.3809 176.599 36.8615C176.631 38.6417 176.621 40.4257 176.605 42.2039C176.603 42.5327 176.694 42.6499 177.053 42.6326C177.563 42.6057 178.074 42.6134 178.586 42.6326C178.88 42.6441 179.079 42.5615 179.26 42.325C179.621 41.8482 180.019 41.3946 180.403 40.9274C180.444 40.9389 180.48 40.9505 180.515 40.9582Z" fill="white"/>
<path d="M197.948 44.3146C198.959 43.7753 199.076 42.9655 199.067 42.1001C199.048 40.2896 199.048 38.4828 199.071 36.6742C199.081 36.298 198.963 36.0257 198.576 35.8237C198.454 35.7588 198.355 35.6606 198.176 35.5234H201.683C201.602 35.6142 201.565 35.6828 201.508 35.7125C200.95 35.9775 200.847 36.3648 200.861 36.8595C200.897 38.4829 200.884 40.1062 200.87 41.7277C200.861 43.1805 199.794 44.1311 197.948 44.3146Z" fill="white"/>
<path d="M99.5957 35.5234H102.086C102.022 35.618 101.991 35.6933 101.937 35.73C101.554 36.0117 101.473 36.413 101.481 36.9282C101.51 38.5723 101.502 40.2144 101.484 41.8585C101.481 42.2541 101.546 42.5589 101.849 42.7673C101.936 42.8271 102.006 42.914 102.053 43.0587H99.6332C99.687 42.9777 99.7032 42.9295 99.7358 42.9063C100.184 42.6169 100.239 42.1479 100.231 41.5903C100.204 39.9848 100.21 38.3774 100.23 36.77C100.234 36.3609 100.171 36.0406 99.8614 35.8168C99.7799 35.7608 99.7195 35.6624 99.5957 35.5234Z" fill="white"/>
<path d="M70.4868 41.7964V40.6101C70.4868 39.3189 70.4707 38.0292 70.4968 36.7363C70.5049 36.354 70.4163 36.0437 70.0177 35.7992C69.9171 35.7413 69.8487 35.6488 69.7158 35.5234H71.9884V38.106C72.234 37.9979 72.3849 37.932 72.5359 37.8662C74.0979 37.1704 75.8129 37.8772 75.9296 39.264C76.0625 40.8138 74.9916 41.7384 72.9787 41.7917C72.1736 41.8136 71.3684 41.7964 70.4868 41.7964ZM72.0045 39.8031C72.0045 40.2089 71.9803 40.6132 72.0186 41.0113C72.0327 41.1413 72.1695 41.32 72.3165 41.3827C72.9505 41.6601 73.5685 41.519 73.957 41.0113C74.4139 40.4127 74.4642 39.7592 74.2911 39.0885C74.0858 38.305 73.2787 37.9587 72.3366 38.2752C72.1877 38.3269 72.0347 38.504 72.0206 38.6325C71.9783 39.0227 72.0045 39.4144 72.0045 39.8031Z" fill="white"/>
<path d="M79.6301 42.0614C80.0255 41.0872 80.3723 40.2343 80.7169 39.3854C80.7317 39.3443 80.7317 39.2954 80.7549 39.2582C81.0404 38.8337 80.9875 38.4934 80.4674 38.2665C80.3828 38.2293 80.3109 38.1765 80.2327 38.1315C80.256 38.1002 80.2792 38.0669 80.3025 38.0356H82.1653C80.7317 39.759 80.3088 41.9088 79.4039 43.859C79.203 44.2953 79.0381 44.7413 78.8795 45.1912C78.7801 45.4689 78.6152 45.5961 78.2811 45.5668C77.9703 45.5374 77.6531 45.559 77.3381 45.559C77.3169 45.5238 77.2958 45.4866 77.2746 45.4475C77.9259 44.7159 78.5792 43.9862 79.3341 43.1392C78.4037 43.3564 78.3614 42.7421 78.1584 42.298C77.6785 41.2711 77.2345 40.2246 76.7333 39.2035C76.5325 38.7986 76.2153 38.4425 75.9404 38.0493H78.9471C78.9175 38.0963 78.9006 38.1491 78.8625 38.1824C78.2367 38.7164 78.2367 38.7125 78.5517 39.4715C78.8922 40.297 79.2347 41.1185 79.6301 42.0614Z" fill="white"/>
</svg>
