<svg width="23" height="14" viewBox="0 0 23 14" fill="none" xmlns="http://www.w3.org/2000/svg">
<path fill-rule="evenodd" clip-rule="evenodd" d="M20.6274 10.2473C21.088 11.1513 21.142 12.2715 21.0373 13.0277L22.1233 13.2285C22.2551 12.2764 22.2027 10.8339 21.5752 9.60241C20.979 8.43234 19.906 7.53681 18.1897 7.38891C18.0341 6.10743 17.3649 4.5274 15.5813 3.90907C14.4324 3.51076 13.2299 2.11543 12.506 0.166918L11.4954 0.668312C12.2947 2.81996 13.6955 4.58225 15.2653 5.12648C16.7304 5.63442 17.1276 7.01755 17.1275 8.0029L17.1275 8.63842L17.6775 8.63842C19.3493 8.63842 20.1928 9.3942 20.6274 10.2473Z" fill="#CA9040"/>
<path fill-rule="evenodd" clip-rule="evenodd" d="M2.53556 10.2468C2.02379 11.1508 1.96384 12.271 2.08018 13.0272L0.873463 13.228C0.726984 12.2759 0.785298 10.8334 1.48248 9.60193C2.14489 8.43185 3.33718 7.53632 5.24417 7.38842C5.41697 6.10694 6.16062 4.52691 8.14235 3.90858C9.41891 3.51027 10.7551 2.11494 11.5593 0.166428L12.6823 0.667823C11.7942 2.81947 10.2377 4.58176 8.49351 5.12599C6.86559 5.63393 6.4243 7.01706 6.42431 8.00241L6.42432 8.63793L5.81328 8.63793C3.95566 8.63793 3.01852 9.39372 2.53556 10.2468Z" fill="#CA9040"/>
</svg>
