<svg width="40" height="76" viewBox="0 0 40 76" fill="none" xmlns="http://www.w3.org/2000/svg">
<path d="M39.0418 9.16036V34.598C36.3221 33.3322 35.1681 31.9891 34.7326 29.6574C34.5604 28.7369 34.501 27.6611 34.501 26.3775V8.94758C34.501 7.46795 33.7746 6.67916 33.2114 6.24863L33.2154 6.24368C30.5689 4.29691 26.1231 1.87012 20.257 1.71176C14.0535 1.53856 9.25831 4.02078 6.42079 6.02594C6.37032 6.06652 6.31194 6.10709 6.2387 6.15757C6.0942 6.25258 5.9576 6.35651 5.83487 6.45746C4.66404 7.44619 4.65019 8.65662 4.65019 9.77302V27.4899C4.65019 27.9561 4.65018 28.9497 4.97679 29.689C4.98173 29.689 4.98173 29.6891 4.97679 29.694C5.09951 29.9573 5.25292 30.1839 5.47164 30.3423C5.49837 30.366 5.52609 30.3828 5.5538 30.3977C5.58448 30.4244 5.62112 30.4422 5.65873 30.46C6.91072 31.1776 8.01918 32.2663 8.01918 33.5954L1.42075 30.5293C0.618091 30.1572 0.108398 29.3535 0.108398 28.4737V9.34249C0.108398 8.7259 0.358797 8.13105 0.808128 7.70448C2.70145 5.89429 9.5582 0.105469 19.6721 0.105469C19.9067 0.105469 20.1392 0.105471 20.3758 0.114379C29.3713 0.350921 35.563 5.02236 38.057 7.29078C38.6509 7.69954 39.0418 8.3864 39.0418 9.16036Z" fill="#CA9040"/>
<path d="M39.1462 34.7667L38.9958 34.6965C36.2562 33.4217 35.0716 32.0618 34.6272 29.6796C34.4649 28.8176 34.3936 27.8001 34.3936 26.3799V8.949C34.3936 7.84745 33.9739 6.96759 33.1446 6.33417L33.0495 6.26093L33.0535 6.25897C30.3605 4.30131 25.984 1.97347 20.2515 1.81908C14.1351 1.64885 9.38646 4.06081 6.47966 6.11447C6.43414 6.15208 6.37278 6.19461 6.29657 6.24707C6.17186 6.32822 6.0432 6.42425 5.89969 6.54104C4.75459 7.50799 4.75458 8.71247 4.75458 9.77444V27.4913C4.75458 27.9446 4.75459 28.873 5.04556 29.5846H5.04656L5.10295 29.7182C5.22567 29.9627 5.36326 30.1358 5.53251 30.2586C5.55824 30.2794 5.57901 30.2942 5.5988 30.3031C5.64235 30.3367 5.67107 30.3506 5.70373 30.3674C6.61031 30.885 8.12356 31.9916 8.12356 33.5979V33.7641L1.37469 30.6277C0.539372 30.2407 0 29.3955 0 28.4751V9.34391C0 8.69466 0.267214 8.07114 0.73238 7.62873C2.60492 5.83933 9.50323 3.50999e-10 19.6686 3.50999e-10C19.9061 3.50999e-10 20.1407 -2.05383e-05 20.3772 0.00987662C29.5143 0.248398 35.8336 5.12772 38.1278 7.21404C38.7602 7.64852 39.1462 8.37991 39.1462 9.16178V34.7667ZM33.3683 6.23915C34.1897 6.90919 34.6054 7.82072 34.6054 8.949V26.3799C34.6054 27.7863 34.6767 28.7918 34.835 29.64C35.2566 31.9005 36.374 33.2119 38.9334 34.4322V9.16178C38.9334 8.45018 38.583 7.7851 37.9942 7.38031C35.7069 5.30191 29.4371 0.460224 20.3693 0.222692C20.1338 0.212795 19.9042 0.212785 19.6686 0.212785C9.58241 0.212785 2.73753 6.00756 0.879834 7.78311C0.456236 8.18493 0.213782 8.75305 0.213782 9.34391V28.4751C0.213782 29.3124 0.704681 30.0824 1.46379 30.4338L7.90386 33.4276C7.80093 32.0193 6.43214 31.0286 5.60276 30.5545C5.56911 30.5377 5.5236 30.5149 5.48204 30.4793C5.46917 30.4763 5.4345 30.4545 5.40184 30.4258C5.19598 30.2764 5.02279 30.0517 4.87829 29.7409L4.84664 29.6726L4.8496 29.6687C4.54081 28.9175 4.5408 27.9585 4.5408 27.4913V9.77444C4.5408 8.66596 4.54079 7.41 5.76408 6.37773C5.91451 6.255 6.04912 6.15405 6.17877 6.06992C6.24707 6.02241 6.30349 5.9838 6.351 5.94421C9.28946 3.86779 14.0817 1.43606 20.2575 1.60629C26.1156 1.76465 30.5713 4.16966 33.2782 6.15899L33.3772 6.23124L33.3683 6.23915Z" fill="#CA9040"/>
<path d="M39.0418 47.5263V66.6536C39.0418 67.2751 38.7865 67.865 38.3421 68.2955C36.4497 70.1018 29.591 75.8955 19.4751 75.8955C19.2436 75.8955 19.008 75.8916 18.7725 75.8857C9.78089 75.6461 3.58329 70.9767 1.09416 68.7082C0.499338 68.3005 0.108398 67.6156 0.108398 66.8347V41.502C2.82418 42.7668 3.98213 44.1108 4.41859 46.4377C4.5908 47.3591 4.65019 48.4339 4.65019 49.7225V65.8281C4.65019 67.2029 5.22619 69.2763 6.66623 70.269C6.68405 70.2878 6.70188 70.2967 6.72069 70.3066C6.72564 70.3145 6.72564 70.3146 6.7296 70.3106C6.75731 70.3334 6.78401 70.3512 6.81172 70.369C6.87506 70.4056 6.92455 70.4412 6.97008 70.4739C9.672 72.2514 13.7318 74.1447 18.8952 74.2853C24.8147 74.4535 29.4554 72.193 32.3365 70.2433C32.381 70.2116 32.4315 70.175 32.4849 70.1394C33.8171 69.2852 34.501 67.0218 34.501 65.5837V48.5309C34.501 47.5006 34.3525 46.8108 34.1279 46.3387C33.9695 45.9982 33.7746 45.7726 33.5707 45.6043C33.5647 45.6043 33.5647 45.5994 33.5608 45.5994C33.5182 45.5637 33.4737 45.536 33.4331 45.5043C33.3866 45.4776 33.342 45.4489 33.2955 45.4222V45.4173C32.1257 44.6967 31.13 43.6625 31.13 42.4006L37.7275 45.4727C38.5272 45.8438 39.0418 46.6415 39.0418 47.5263Z" fill="#CA9040"/>
<path d="M19.4746 75.9978C19.244 75.9978 19.0055 75.9948 18.7699 75.9899C9.61705 75.7454 3.30959 70.8701 1.02236 68.7848C0.387948 68.3503 0.00195312 67.6179 0.00195312 66.833V41.332L0.154391 41.4023C2.89293 42.679 4.07763 44.0379 4.523 46.4152C4.68432 47.2762 4.75656 48.2957 4.75656 49.7199V65.8255C4.75656 67.2626 5.36919 69.2341 6.71422 70.1714L6.72113 70.1634L6.80229 70.2297C6.82406 70.2476 6.84485 70.2614 6.86662 70.2753C6.92304 70.3069 6.97056 70.3416 7.01411 70.3722C9.53788 72.034 13.6333 74.0332 18.8976 74.1757C24.7993 74.345 29.4312 72.0795 32.2766 70.1506L32.3191 70.1219C32.3518 70.0981 32.3864 70.0724 32.425 70.0466C33.7681 69.1856 34.3946 66.8726 34.3946 65.5801V48.5273C34.3946 47.6128 34.2729 46.8903 34.0314 46.3806C33.9037 46.1054 33.7394 45.8857 33.5306 45.7066L33.5207 45.7016L33.49 45.6759C33.4692 45.6551 33.4435 45.6393 33.4227 45.6224C33.4029 45.6096 33.3861 45.5977 33.3682 45.5848L33.1901 45.474C31.7926 44.5981 31.0246 43.5074 31.0246 42.397V42.2297L37.7725 45.3721C38.6078 45.761 39.1472 46.6052 39.1472 47.5237V66.6509C39.1472 67.2933 38.88 67.9188 38.4168 68.3691C36.5373 70.1595 29.6271 75.9978 19.4746 75.9978ZM0.214769 41.6665V66.833C0.214769 67.5466 0.565126 68.2147 1.15302 68.6175C3.43431 70.6959 9.69326 75.5346 18.7739 75.7761C19.0075 75.7821 19.244 75.786 19.4746 75.786C29.548 75.786 36.4067 69.9922 38.2683 68.2157C38.6998 67.8 38.9354 67.2448 38.9354 66.6509V47.5237C38.9354 46.6874 38.4445 45.9194 37.6844 45.5651L31.2453 42.5672C31.3443 43.8924 32.5963 44.8574 33.3524 45.3235L33.5434 45.4483L33.5979 45.4888L33.6177 45.5017L33.6385 45.5185C33.8859 45.7214 34.0769 45.9748 34.2243 46.2905C34.4817 46.8358 34.6074 47.5672 34.6074 48.5273V65.5801C34.6074 66.9597 33.968 69.3123 32.5428 70.2248C32.5062 70.2485 32.4736 70.2723 32.4399 70.296L32.3954 70.3267C29.5232 72.2735 24.8448 74.5548 18.8907 74.3885C13.5759 74.244 9.44188 72.226 6.91118 70.5593C6.85179 70.5187 6.80923 70.489 6.75677 70.4594C6.73203 70.4415 6.71027 70.4287 6.69048 70.4128L6.65384 70.4069L6.63998 70.3822C6.62513 70.3723 6.60732 70.3594 6.58951 70.3426C5.18708 69.3766 4.54178 67.321 4.54178 65.8255V49.7199C4.54178 48.3095 4.47153 47.302 4.31317 46.4548C3.89056 44.2002 2.77417 42.8888 0.214769 41.6665Z" fill="#CA9040"/>
<path d="M23.6105 21.3165V14.5983C22.9335 12.9871 21.3757 11.8895 19.6417 11.8351C17.8167 11.7806 16.1094 12.901 15.3958 14.6023V61.2139C16.1094 62.9093 17.8127 64.0208 19.6417 63.9802C21.3757 63.9267 22.9345 62.8282 23.6105 61.2139L23.6817 44.268V44.2641C23.6738 44.1908 23.6698 44.1097 23.6698 44.0186C23.6698 41.5463 22.7415 40.6526 21.3341 39.9994L21.3391 39.9944L21.2272 39.9449C19.9 39.2917 18.2333 37.8309 18.2333 36.4829L25.8759 40.04C27.216 40.6615 28.0968 42.3856 28.2087 43.9048V43.9187L28.1503 59.0633L28.0325 59.4117C26.8339 62.9875 23.5135 65.4638 19.7773 65.5776C19.6862 65.5825 19.6001 65.5826 19.5091 65.5826C15.6947 65.5826 12.207 63.0776 10.9718 59.4117L10.854 59.0583V16.753L10.9718 16.4036C12.2347 12.6516 15.8442 10.1159 19.7763 10.2386C23.5125 10.3515 26.833 12.8287 28.0315 16.4036L28.1493 16.7579V29.5381C25.4296 28.2713 24.2775 26.9292 23.8401 24.6014C23.6698 23.681 23.6105 22.6041 23.6105 21.3165Z" fill="#CA9040"/>
<path d="M19.2571 65.8658C15.4091 65.8658 11.856 63.2985 10.6179 59.6227L10.4941 59.2357V16.9125L10.6179 16.5463C11.8946 12.7507 15.5575 10.1834 19.5263 10.3091C23.31 10.4229 26.6671 12.9299 27.8795 16.5473L28.0032 16.9343V29.8807L27.8528 29.8105C25.1132 28.5367 23.9286 27.1778 23.4822 24.7985C23.3219 23.9365 23.2506 22.9171 23.2506 21.4939V14.7965C22.5796 13.2208 21.0653 12.1718 19.3848 12.1183C17.6092 12.0668 15.9534 13.1427 15.2488 14.8004V61.3685C15.9495 63.0134 17.6161 64.0942 19.3858 64.0516C21.0643 63.9982 22.5796 62.9471 23.2506 61.3685L23.3218 44.4444C23.3139 44.3781 23.308 44.292 23.308 44.196C23.308 41.8068 22.44 40.924 21.0376 40.2727L20.8941 40.2074L20.898 40.2035C19.7133 39.6096 17.8725 38.1429 17.8725 36.6603V36.493L25.6665 40.1203C27.0947 40.7834 27.9537 42.6114 28.0616 44.0742L27.9993 59.2743L27.8795 59.6237C26.6671 63.2391 23.31 65.747 19.5263 65.8618C19.4352 65.8658 19.3481 65.8658 19.2571 65.8658ZM10.7079 59.2179L10.8208 59.5554C12.0302 63.1461 15.4991 65.653 19.2571 65.653C19.3471 65.658 19.4303 65.653 19.5184 65.6481C23.216 65.5362 26.4939 63.0877 27.6796 59.5554L27.7914 59.2218L27.8498 44.096C27.7459 42.6896 26.9333 40.9418 25.5784 40.3133L18.0961 36.8315C18.2337 38.1073 19.8539 39.4523 21.0198 40.0263L21.2771 40.1391L21.2672 40.1461C22.6627 40.827 23.5208 41.7741 23.5208 44.196C23.5208 44.2821 23.5267 44.3593 23.5346 44.4276L23.4555 61.4309C22.7577 63.0966 21.1633 64.209 19.3907 64.2644C17.5172 64.307 15.7733 63.1668 15.0448 61.4319L15.0359 61.3903V14.7579L15.0448 14.7391C15.7772 12.9882 17.5221 11.8501 19.3907 11.9055C21.1633 11.9609 22.7557 13.0714 23.4555 14.7341L23.4634 14.7757V21.4939C23.4634 22.9042 23.5327 23.9108 23.693 24.759C24.1146 27.0165 25.232 28.3259 27.7914 29.5472V16.9521L27.6796 16.6146C26.4949 13.0823 23.2159 10.6337 19.5203 10.5219C15.6476 10.4031 12.0678 12.9061 10.8208 16.6146L10.7079 16.9471V59.2179Z" fill="#CA9040"/>
</svg>
