<svg width="8" height="14" viewBox="0 0 8 14" fill="none" xmlns="http://www.w3.org/2000/svg">
<path fill-rule="evenodd" clip-rule="evenodd" d="M1.82594 12.1381C1.27226 12.4202 0.586173 12.4533 0.122992 12.3891L-6.29919e-09 13.0543C0.583184 13.135 1.46664 13.1029 2.22092 12.7186C2.93757 12.3535 3.48607 11.6962 3.57666 10.645C4.36154 10.5498 5.32928 10.1398 5.708 9.04744C5.95195 8.34376 6.80657 7.60723 8 7.16389L7.6929 6.54488C6.37506 7.03444 5.29568 7.8924 4.96235 8.85387C4.65125 9.75124 3.80411 9.99449 3.2006 9.99449L2.81135 9.99448L2.81135 10.3313C2.81135 11.3553 2.34845 11.8719 1.82594 12.1381Z" fill="black"/>
<path fill-rule="evenodd" clip-rule="evenodd" d="M1.82594 1.05804C1.27226 0.744588 0.586173 0.707868 0.122992 0.779123L6.99911e-09 0.0400302C0.583184 -0.0496854 1.46664 -0.013969 2.22092 0.413044C2.93757 0.818755 3.48607 1.54902 3.57666 2.71701C4.36154 2.82285 5.32928 3.27832 5.708 4.4921C5.95196 5.27397 6.80657 6.09233 8 6.58493L7.6929 7.27273C6.37506 6.72877 5.29568 5.77548 4.96235 4.70718C4.65125 3.7101 3.80411 3.43982 3.2006 3.43983L2.81135 3.43984L2.81135 3.06558C2.81135 1.92782 2.34845 1.35384 1.82594 1.05804Z" fill="black"/>
</svg>
