<svg width="16" height="26" viewBox="0 0 16 26" fill="none" xmlns="http://www.w3.org/2000/svg">
<path fill-rule="evenodd" clip-rule="evenodd" d="M11.8116 23.2223C12.8708 23.762 14.1833 23.8252 15.0694 23.7025L15.3047 24.975C14.189 25.1295 12.4989 25.068 11.056 24.3328C9.68498 23.6343 8.63568 22.3769 8.46238 20.366C6.96086 20.1837 5.10954 19.3995 4.38503 17.3097C3.91833 15.9635 2.28341 14.5545 0.000331916 13.7064L0.587818 12.5222C3.10892 13.4588 5.17381 15.1001 5.81149 16.9394C6.40664 18.6561 8.02726 19.1215 9.1818 19.1215L9.92644 19.1214L9.92644 19.7658C9.92644 21.7247 10.812 22.713 11.8116 23.2223Z" fill="white"/>
<path fill-rule="evenodd" clip-rule="evenodd" d="M11.8116 2.02407C12.8708 1.42443 14.1833 1.35418 15.0694 1.4905L15.3047 0.0765796C14.189 -0.0950504 12.4989 -0.026723 11.056 0.790172C9.68498 1.56632 8.63568 2.96334 8.46238 5.19777C6.96086 5.40023 5.10954 6.27158 4.38503 8.59358C3.91833 10.0893 2.28342 11.6549 0.000331731 12.5973L0.58782 13.9131C3.10892 12.8724 5.17381 11.0488 5.81149 9.00504C6.40664 7.09759 8.02726 6.58053 9.1818 6.58055L9.92645 6.58056L9.92645 5.8646C9.92645 3.68801 10.812 2.58996 11.8116 2.02407Z" fill="white"/>
</svg>
