<svg width="16" height="26" viewBox="0 0 16 26" fill="none" xmlns="http://www.w3.org/2000/svg">
<path fill-rule="evenodd" clip-rule="evenodd" d="M3.4931 2.77772C2.43389 2.23804 1.12137 2.17482 0.235289 2.2975L-1.20506e-08 1.02498C1.11566 0.87051 2.80576 0.932005 4.24872 1.66721C5.61971 2.36574 6.66901 3.62306 6.84231 5.63404C8.34382 5.81627 10.1952 6.60048 10.9197 8.69028C11.3864 10.0365 13.0213 11.4455 15.3044 12.2936L14.7169 13.4778C12.1958 12.5412 10.1309 10.8999 9.4932 9.06059C8.89804 7.34389 7.27743 6.87853 6.12289 6.87855L5.37824 6.87856L5.37824 6.23419C5.37824 4.27526 4.49269 3.28702 3.4931 2.77772Z" fill="#808080"/>
<path fill-rule="evenodd" clip-rule="evenodd" d="M3.4931 23.9759C2.43389 24.5756 1.12138 24.6458 0.235289 24.5095L1.33896e-08 25.9234C1.11566 26.0951 2.80576 26.0267 4.24872 25.2098C5.61971 24.4337 6.66901 23.0367 6.84231 20.8022C8.34382 20.5998 10.1951 19.7284 10.9197 17.4064C11.3864 15.9107 13.0213 14.3451 15.3044 13.4027L14.7169 12.087C12.1958 13.1276 10.1309 14.9512 9.4932 16.995C8.89804 18.9024 7.27743 19.4195 6.12289 19.4195L5.37824 19.4194L5.37824 20.1354C5.37824 22.312 4.49269 23.41 3.4931 23.9759Z" fill="#808080"/>
</svg>
